%TF.GenerationSoftware,KiCad,Pcbnew,8.0.3*%
%TF.CreationDate,2024-07-01T15:14:42+02:00*%
%TF.ProjectId,wattwiser,77617474-7769-4736-9572-2e6b69636164,rev?*%
%TF.SameCoordinates,Original*%
%TF.FileFunction,Soldermask,Bot*%
%TF.FilePolarity,Negative*%
%FSLAX46Y46*%
G04 Gerber Fmt 4.6, Leading zero omitted, Abs format (unit mm)*
G04 Created by KiCad (PCBNEW 8.0.3) date 2024-07-01 15:14:42*
%MOMM*%
%LPD*%
G01*
G04 APERTURE LIST*
%ADD10R,1.800000X1.800000*%
%ADD11C,1.800000*%
%ADD12R,2.600000X2.600000*%
%ADD13C,2.600000*%
%ADD14C,0.800000*%
%ADD15C,6.400000*%
%ADD16R,1.700000X1.700000*%
%ADD17O,1.700000X1.700000*%
%ADD18R,2.000000X2.000000*%
%ADD19C,2.000000*%
%ADD20R,3.200000X3.200000*%
%ADD21O,3.200000X3.200000*%
%ADD22C,3.000000*%
%ADD23R,3.000000X3.000000*%
%ADD24R,1.600000X1.600000*%
%ADD25O,1.600000X1.600000*%
%ADD26R,1.905000X2.000000*%
%ADD27O,1.905000X2.000000*%
G04 APERTURE END LIST*
D10*
%TO.C,D2*%
X155725000Y-58000000D03*
D11*
X158265000Y-58000000D03*
%TD*%
D12*
%TO.C,J1*%
X102500000Y-132000000D03*
D13*
X107500000Y-132000000D03*
%TD*%
D14*
%TO.C,H1*%
X87600000Y-47000000D03*
X88302944Y-45302944D03*
X88302944Y-48697056D03*
X90000000Y-44600000D03*
D15*
X90000000Y-47000000D03*
D14*
X90000000Y-49400000D03*
X91697056Y-45302944D03*
X91697056Y-48697056D03*
X92400000Y-47000000D03*
%TD*%
D16*
%TO.C,J5*%
X141000000Y-111000000D03*
D17*
X143540000Y-111000000D03*
X146080000Y-111000000D03*
X148620000Y-111000000D03*
X151160000Y-111000000D03*
X153700000Y-111000000D03*
%TD*%
D18*
%TO.C,C4*%
X130500000Y-93000000D03*
D19*
X130500000Y-88000000D03*
%TD*%
D20*
%TO.C,D5*%
X174500000Y-88500000D03*
D21*
X159260000Y-88500000D03*
%TD*%
D14*
%TO.C,H2*%
X177600000Y-47000000D03*
X178302944Y-45302944D03*
X178302944Y-48697056D03*
X180000000Y-44600000D03*
D15*
X180000000Y-47000000D03*
D14*
X180000000Y-49400000D03*
X181697056Y-45302944D03*
X181697056Y-48697056D03*
X182400000Y-47000000D03*
%TD*%
%TO.C,H3*%
X87600000Y-137000000D03*
X88302944Y-135302944D03*
X88302944Y-138697056D03*
X90000000Y-134600000D03*
D15*
X90000000Y-137000000D03*
D14*
X90000000Y-139400000D03*
X91697056Y-135302944D03*
X91697056Y-138697056D03*
X92400000Y-137000000D03*
%TD*%
D13*
%TO.C,J4*%
X122000000Y-132000000D03*
D12*
X117000000Y-132000000D03*
%TD*%
D16*
%TO.C,J2*%
X114000000Y-51880000D03*
D17*
X114000000Y-54420000D03*
X114000000Y-56960000D03*
X114000000Y-59500000D03*
X114000000Y-62040000D03*
X114000000Y-64580000D03*
%TD*%
D18*
%TO.C,C5*%
X163500000Y-100367677D03*
D19*
X163500000Y-95367677D03*
%TD*%
D14*
%TO.C,H4*%
X177600000Y-137000000D03*
X178302944Y-135302944D03*
X178302944Y-138697056D03*
X180000000Y-134600000D03*
D15*
X180000000Y-137000000D03*
D14*
X180000000Y-139400000D03*
X181697056Y-135302944D03*
X181697056Y-138697056D03*
X182400000Y-137000000D03*
%TD*%
D22*
%TO.C,PS1*%
X130342500Y-111750000D03*
X130342500Y-119750000D03*
X91842500Y-119750000D03*
D23*
X91842500Y-109000000D03*
%TD*%
D24*
%TO.C,U4*%
X114080000Y-82500000D03*
D25*
X111540000Y-82500000D03*
X109000000Y-82500000D03*
X109000000Y-90120000D03*
X111540000Y-90120000D03*
X114080000Y-90120000D03*
%TD*%
D10*
%TO.C,D4*%
X170725000Y-58000000D03*
D11*
X173265000Y-58000000D03*
%TD*%
D10*
%TO.C,D3*%
X163225000Y-58000000D03*
D11*
X165765000Y-58000000D03*
%TD*%
D26*
%TO.C,Q4*%
X93000000Y-93500000D03*
D27*
X95540000Y-93500000D03*
X98080000Y-93500000D03*
%TD*%
D12*
%TO.C,J3*%
X165487500Y-132000000D03*
D13*
X170487500Y-132000000D03*
%TD*%
M02*
