%TF.GenerationSoftware,KiCad,Pcbnew,8.0.3*%
%TF.CreationDate,2024-07-01T15:14:42+02:00*%
%TF.ProjectId,wattwiser,77617474-7769-4736-9572-2e6b69636164,rev?*%
%TF.SameCoordinates,Original*%
%TF.FileFunction,Legend,Top*%
%TF.FilePolarity,Positive*%
%FSLAX46Y46*%
G04 Gerber Fmt 4.6, Leading zero omitted, Abs format (unit mm)*
G04 Created by KiCad (PCBNEW 8.0.3) date 2024-07-01 15:14:42*
%MOMM*%
%LPD*%
G01*
G04 APERTURE LIST*
%ADD10C,0.300000*%
%ADD11C,0.100000*%
%ADD12C,0.150000*%
%ADD13C,0.120000*%
G04 APERTURE END LIST*
D10*
X141054510Y-138515114D02*
X141554510Y-138515114D01*
X141768796Y-139300828D02*
X141054510Y-139300828D01*
X141054510Y-139300828D02*
X141054510Y-137800828D01*
X141054510Y-137800828D02*
X141768796Y-137800828D01*
X142268796Y-137800828D02*
X143268796Y-139300828D01*
X143268796Y-137800828D02*
X142268796Y-139300828D01*
X143840224Y-139300828D02*
X143840224Y-137800828D01*
X143840224Y-137800828D02*
X144411653Y-137800828D01*
X144411653Y-137800828D02*
X144554510Y-137872257D01*
X144554510Y-137872257D02*
X144625939Y-137943685D01*
X144625939Y-137943685D02*
X144697367Y-138086542D01*
X144697367Y-138086542D02*
X144697367Y-138300828D01*
X144697367Y-138300828D02*
X144625939Y-138443685D01*
X144625939Y-138443685D02*
X144554510Y-138515114D01*
X144554510Y-138515114D02*
X144411653Y-138586542D01*
X144411653Y-138586542D02*
X143840224Y-138586542D01*
X145268796Y-138872257D02*
X145983082Y-138872257D01*
X145125939Y-139300828D02*
X145625939Y-137800828D01*
X145625939Y-137800828D02*
X146125939Y-139300828D01*
X146625938Y-139300828D02*
X146625938Y-137800828D01*
X146625938Y-137800828D02*
X147483081Y-139300828D01*
X147483081Y-139300828D02*
X147483081Y-137800828D01*
X148125939Y-139229400D02*
X148340225Y-139300828D01*
X148340225Y-139300828D02*
X148697367Y-139300828D01*
X148697367Y-139300828D02*
X148840225Y-139229400D01*
X148840225Y-139229400D02*
X148911653Y-139157971D01*
X148911653Y-139157971D02*
X148983082Y-139015114D01*
X148983082Y-139015114D02*
X148983082Y-138872257D01*
X148983082Y-138872257D02*
X148911653Y-138729400D01*
X148911653Y-138729400D02*
X148840225Y-138657971D01*
X148840225Y-138657971D02*
X148697367Y-138586542D01*
X148697367Y-138586542D02*
X148411653Y-138515114D01*
X148411653Y-138515114D02*
X148268796Y-138443685D01*
X148268796Y-138443685D02*
X148197367Y-138372257D01*
X148197367Y-138372257D02*
X148125939Y-138229400D01*
X148125939Y-138229400D02*
X148125939Y-138086542D01*
X148125939Y-138086542D02*
X148197367Y-137943685D01*
X148197367Y-137943685D02*
X148268796Y-137872257D01*
X148268796Y-137872257D02*
X148411653Y-137800828D01*
X148411653Y-137800828D02*
X148768796Y-137800828D01*
X148768796Y-137800828D02*
X148983082Y-137872257D01*
X149625938Y-139300828D02*
X149625938Y-137800828D01*
X150625939Y-137800828D02*
X150911653Y-137800828D01*
X150911653Y-137800828D02*
X151054510Y-137872257D01*
X151054510Y-137872257D02*
X151197367Y-138015114D01*
X151197367Y-138015114D02*
X151268796Y-138300828D01*
X151268796Y-138300828D02*
X151268796Y-138800828D01*
X151268796Y-138800828D02*
X151197367Y-139086542D01*
X151197367Y-139086542D02*
X151054510Y-139229400D01*
X151054510Y-139229400D02*
X150911653Y-139300828D01*
X150911653Y-139300828D02*
X150625939Y-139300828D01*
X150625939Y-139300828D02*
X150483082Y-139229400D01*
X150483082Y-139229400D02*
X150340224Y-139086542D01*
X150340224Y-139086542D02*
X150268796Y-138800828D01*
X150268796Y-138800828D02*
X150268796Y-138300828D01*
X150268796Y-138300828D02*
X150340224Y-138015114D01*
X150340224Y-138015114D02*
X150483082Y-137872257D01*
X150483082Y-137872257D02*
X150625939Y-137800828D01*
X151911653Y-139300828D02*
X151911653Y-137800828D01*
X151911653Y-137800828D02*
X152768796Y-139300828D01*
X152768796Y-139300828D02*
X152768796Y-137800828D01*
X101983082Y-138872257D02*
X102697368Y-138872257D01*
X101840225Y-139300828D02*
X102340225Y-137800828D01*
X102340225Y-137800828D02*
X102840225Y-139300828D01*
X104197367Y-139157971D02*
X104125939Y-139229400D01*
X104125939Y-139229400D02*
X103911653Y-139300828D01*
X103911653Y-139300828D02*
X103768796Y-139300828D01*
X103768796Y-139300828D02*
X103554510Y-139229400D01*
X103554510Y-139229400D02*
X103411653Y-139086542D01*
X103411653Y-139086542D02*
X103340224Y-138943685D01*
X103340224Y-138943685D02*
X103268796Y-138657971D01*
X103268796Y-138657971D02*
X103268796Y-138443685D01*
X103268796Y-138443685D02*
X103340224Y-138157971D01*
X103340224Y-138157971D02*
X103411653Y-138015114D01*
X103411653Y-138015114D02*
X103554510Y-137872257D01*
X103554510Y-137872257D02*
X103768796Y-137800828D01*
X103768796Y-137800828D02*
X103911653Y-137800828D01*
X103911653Y-137800828D02*
X104125939Y-137872257D01*
X104125939Y-137872257D02*
X104197367Y-137943685D01*
X105983081Y-139300828D02*
X105983081Y-137800828D01*
X106697367Y-139300828D02*
X106697367Y-137800828D01*
X106697367Y-137800828D02*
X107554510Y-139300828D01*
X107554510Y-139300828D02*
X107554510Y-137800828D01*
X114411653Y-139157971D02*
X114340225Y-139229400D01*
X114340225Y-139229400D02*
X114125939Y-139300828D01*
X114125939Y-139300828D02*
X113983082Y-139300828D01*
X113983082Y-139300828D02*
X113768796Y-139229400D01*
X113768796Y-139229400D02*
X113625939Y-139086542D01*
X113625939Y-139086542D02*
X113554510Y-138943685D01*
X113554510Y-138943685D02*
X113483082Y-138657971D01*
X113483082Y-138657971D02*
X113483082Y-138443685D01*
X113483082Y-138443685D02*
X113554510Y-138157971D01*
X113554510Y-138157971D02*
X113625939Y-138015114D01*
X113625939Y-138015114D02*
X113768796Y-137872257D01*
X113768796Y-137872257D02*
X113983082Y-137800828D01*
X113983082Y-137800828D02*
X114125939Y-137800828D01*
X114125939Y-137800828D02*
X114340225Y-137872257D01*
X114340225Y-137872257D02*
X114411653Y-137943685D01*
X115340225Y-137800828D02*
X115625939Y-137800828D01*
X115625939Y-137800828D02*
X115768796Y-137872257D01*
X115768796Y-137872257D02*
X115911653Y-138015114D01*
X115911653Y-138015114D02*
X115983082Y-138300828D01*
X115983082Y-138300828D02*
X115983082Y-138800828D01*
X115983082Y-138800828D02*
X115911653Y-139086542D01*
X115911653Y-139086542D02*
X115768796Y-139229400D01*
X115768796Y-139229400D02*
X115625939Y-139300828D01*
X115625939Y-139300828D02*
X115340225Y-139300828D01*
X115340225Y-139300828D02*
X115197368Y-139229400D01*
X115197368Y-139229400D02*
X115054510Y-139086542D01*
X115054510Y-139086542D02*
X114983082Y-138800828D01*
X114983082Y-138800828D02*
X114983082Y-138300828D01*
X114983082Y-138300828D02*
X115054510Y-138015114D01*
X115054510Y-138015114D02*
X115197368Y-137872257D01*
X115197368Y-137872257D02*
X115340225Y-137800828D01*
X116625939Y-139300828D02*
X116625939Y-137800828D01*
X116625939Y-137800828D02*
X117483082Y-139300828D01*
X117483082Y-139300828D02*
X117483082Y-137800828D01*
X117983083Y-137800828D02*
X118840226Y-137800828D01*
X118411654Y-139300828D02*
X118411654Y-137800828D01*
X119268797Y-138872257D02*
X119983083Y-138872257D01*
X119125940Y-139300828D02*
X119625940Y-137800828D01*
X119625940Y-137800828D02*
X120125940Y-139300828D01*
X121483082Y-139157971D02*
X121411654Y-139229400D01*
X121411654Y-139229400D02*
X121197368Y-139300828D01*
X121197368Y-139300828D02*
X121054511Y-139300828D01*
X121054511Y-139300828D02*
X120840225Y-139229400D01*
X120840225Y-139229400D02*
X120697368Y-139086542D01*
X120697368Y-139086542D02*
X120625939Y-138943685D01*
X120625939Y-138943685D02*
X120554511Y-138657971D01*
X120554511Y-138657971D02*
X120554511Y-138443685D01*
X120554511Y-138443685D02*
X120625939Y-138157971D01*
X120625939Y-138157971D02*
X120697368Y-138015114D01*
X120697368Y-138015114D02*
X120840225Y-137872257D01*
X120840225Y-137872257D02*
X121054511Y-137800828D01*
X121054511Y-137800828D02*
X121197368Y-137800828D01*
X121197368Y-137800828D02*
X121411654Y-137872257D01*
X121411654Y-137872257D02*
X121483082Y-137943685D01*
X121911654Y-137800828D02*
X122768797Y-137800828D01*
X122340225Y-139300828D02*
X122340225Y-137800828D01*
X123554511Y-137800828D02*
X123840225Y-137800828D01*
X123840225Y-137800828D02*
X123983082Y-137872257D01*
X123983082Y-137872257D02*
X124125939Y-138015114D01*
X124125939Y-138015114D02*
X124197368Y-138300828D01*
X124197368Y-138300828D02*
X124197368Y-138800828D01*
X124197368Y-138800828D02*
X124125939Y-139086542D01*
X124125939Y-139086542D02*
X123983082Y-139229400D01*
X123983082Y-139229400D02*
X123840225Y-139300828D01*
X123840225Y-139300828D02*
X123554511Y-139300828D01*
X123554511Y-139300828D02*
X123411654Y-139229400D01*
X123411654Y-139229400D02*
X123268796Y-139086542D01*
X123268796Y-139086542D02*
X123197368Y-138800828D01*
X123197368Y-138800828D02*
X123197368Y-138300828D01*
X123197368Y-138300828D02*
X123268796Y-138015114D01*
X123268796Y-138015114D02*
X123411654Y-137872257D01*
X123411654Y-137872257D02*
X123554511Y-137800828D01*
X125697368Y-139300828D02*
X125197368Y-138586542D01*
X124840225Y-139300828D02*
X124840225Y-137800828D01*
X124840225Y-137800828D02*
X125411654Y-137800828D01*
X125411654Y-137800828D02*
X125554511Y-137872257D01*
X125554511Y-137872257D02*
X125625940Y-137943685D01*
X125625940Y-137943685D02*
X125697368Y-138086542D01*
X125697368Y-138086542D02*
X125697368Y-138300828D01*
X125697368Y-138300828D02*
X125625940Y-138443685D01*
X125625940Y-138443685D02*
X125554511Y-138515114D01*
X125554511Y-138515114D02*
X125411654Y-138586542D01*
X125411654Y-138586542D02*
X124840225Y-138586542D01*
X161554510Y-139300828D02*
X161554510Y-137800828D01*
X161554510Y-137800828D02*
X161911653Y-137800828D01*
X161911653Y-137800828D02*
X162125939Y-137872257D01*
X162125939Y-137872257D02*
X162268796Y-138015114D01*
X162268796Y-138015114D02*
X162340225Y-138157971D01*
X162340225Y-138157971D02*
X162411653Y-138443685D01*
X162411653Y-138443685D02*
X162411653Y-138657971D01*
X162411653Y-138657971D02*
X162340225Y-138943685D01*
X162340225Y-138943685D02*
X162268796Y-139086542D01*
X162268796Y-139086542D02*
X162125939Y-139229400D01*
X162125939Y-139229400D02*
X161911653Y-139300828D01*
X161911653Y-139300828D02*
X161554510Y-139300828D01*
X163054510Y-139300828D02*
X163054510Y-137800828D01*
X164554511Y-137872257D02*
X164411654Y-137800828D01*
X164411654Y-137800828D02*
X164197368Y-137800828D01*
X164197368Y-137800828D02*
X163983082Y-137872257D01*
X163983082Y-137872257D02*
X163840225Y-138015114D01*
X163840225Y-138015114D02*
X163768796Y-138157971D01*
X163768796Y-138157971D02*
X163697368Y-138443685D01*
X163697368Y-138443685D02*
X163697368Y-138657971D01*
X163697368Y-138657971D02*
X163768796Y-138943685D01*
X163768796Y-138943685D02*
X163840225Y-139086542D01*
X163840225Y-139086542D02*
X163983082Y-139229400D01*
X163983082Y-139229400D02*
X164197368Y-139300828D01*
X164197368Y-139300828D02*
X164340225Y-139300828D01*
X164340225Y-139300828D02*
X164554511Y-139229400D01*
X164554511Y-139229400D02*
X164625939Y-139157971D01*
X164625939Y-139157971D02*
X164625939Y-138657971D01*
X164625939Y-138657971D02*
X164340225Y-138657971D01*
X165268796Y-139300828D02*
X165268796Y-137800828D01*
X165768797Y-137800828D02*
X166625940Y-137800828D01*
X166197368Y-139300828D02*
X166197368Y-137800828D01*
X167054511Y-138872257D02*
X167768797Y-138872257D01*
X166911654Y-139300828D02*
X167411654Y-137800828D01*
X167411654Y-137800828D02*
X167911654Y-139300828D01*
X169125939Y-139300828D02*
X168411653Y-139300828D01*
X168411653Y-139300828D02*
X168411653Y-137800828D01*
X171054511Y-137800828D02*
X171340225Y-137800828D01*
X171340225Y-137800828D02*
X171483082Y-137872257D01*
X171483082Y-137872257D02*
X171625939Y-138015114D01*
X171625939Y-138015114D02*
X171697368Y-138300828D01*
X171697368Y-138300828D02*
X171697368Y-138800828D01*
X171697368Y-138800828D02*
X171625939Y-139086542D01*
X171625939Y-139086542D02*
X171483082Y-139229400D01*
X171483082Y-139229400D02*
X171340225Y-139300828D01*
X171340225Y-139300828D02*
X171054511Y-139300828D01*
X171054511Y-139300828D02*
X170911654Y-139229400D01*
X170911654Y-139229400D02*
X170768796Y-139086542D01*
X170768796Y-139086542D02*
X170697368Y-138800828D01*
X170697368Y-138800828D02*
X170697368Y-138300828D01*
X170697368Y-138300828D02*
X170768796Y-138015114D01*
X170768796Y-138015114D02*
X170911654Y-137872257D01*
X170911654Y-137872257D02*
X171054511Y-137800828D01*
X172340225Y-137800828D02*
X172340225Y-139015114D01*
X172340225Y-139015114D02*
X172411654Y-139157971D01*
X172411654Y-139157971D02*
X172483083Y-139229400D01*
X172483083Y-139229400D02*
X172625940Y-139300828D01*
X172625940Y-139300828D02*
X172911654Y-139300828D01*
X172911654Y-139300828D02*
X173054511Y-139229400D01*
X173054511Y-139229400D02*
X173125940Y-139157971D01*
X173125940Y-139157971D02*
X173197368Y-139015114D01*
X173197368Y-139015114D02*
X173197368Y-137800828D01*
X173697369Y-137800828D02*
X174554512Y-137800828D01*
X174125940Y-139300828D02*
X174125940Y-137800828D01*
X101411653Y-43800828D02*
X101768796Y-45300828D01*
X101768796Y-45300828D02*
X102054510Y-44229400D01*
X102054510Y-44229400D02*
X102340225Y-45300828D01*
X102340225Y-45300828D02*
X102697368Y-43800828D01*
X103197368Y-44872257D02*
X103911654Y-44872257D01*
X103054511Y-45300828D02*
X103554511Y-43800828D01*
X103554511Y-43800828D02*
X104054511Y-45300828D01*
X104340225Y-43800828D02*
X105197368Y-43800828D01*
X104768796Y-45300828D02*
X104768796Y-43800828D01*
X105483082Y-43800828D02*
X106340225Y-43800828D01*
X105911653Y-45300828D02*
X105911653Y-43800828D01*
X106697367Y-43800828D02*
X107054510Y-45300828D01*
X107054510Y-45300828D02*
X107340224Y-44229400D01*
X107340224Y-44229400D02*
X107625939Y-45300828D01*
X107625939Y-45300828D02*
X107983082Y-43800828D01*
X108554510Y-45300828D02*
X108554510Y-43800828D01*
X109197368Y-45229400D02*
X109411654Y-45300828D01*
X109411654Y-45300828D02*
X109768796Y-45300828D01*
X109768796Y-45300828D02*
X109911654Y-45229400D01*
X109911654Y-45229400D02*
X109983082Y-45157971D01*
X109983082Y-45157971D02*
X110054511Y-45015114D01*
X110054511Y-45015114D02*
X110054511Y-44872257D01*
X110054511Y-44872257D02*
X109983082Y-44729400D01*
X109983082Y-44729400D02*
X109911654Y-44657971D01*
X109911654Y-44657971D02*
X109768796Y-44586542D01*
X109768796Y-44586542D02*
X109483082Y-44515114D01*
X109483082Y-44515114D02*
X109340225Y-44443685D01*
X109340225Y-44443685D02*
X109268796Y-44372257D01*
X109268796Y-44372257D02*
X109197368Y-44229400D01*
X109197368Y-44229400D02*
X109197368Y-44086542D01*
X109197368Y-44086542D02*
X109268796Y-43943685D01*
X109268796Y-43943685D02*
X109340225Y-43872257D01*
X109340225Y-43872257D02*
X109483082Y-43800828D01*
X109483082Y-43800828D02*
X109840225Y-43800828D01*
X109840225Y-43800828D02*
X110054511Y-43872257D01*
X110697367Y-44515114D02*
X111197367Y-44515114D01*
X111411653Y-45300828D02*
X110697367Y-45300828D01*
X110697367Y-45300828D02*
X110697367Y-43800828D01*
X110697367Y-43800828D02*
X111411653Y-43800828D01*
X112911653Y-45300828D02*
X112411653Y-44586542D01*
X112054510Y-45300828D02*
X112054510Y-43800828D01*
X112054510Y-43800828D02*
X112625939Y-43800828D01*
X112625939Y-43800828D02*
X112768796Y-43872257D01*
X112768796Y-43872257D02*
X112840225Y-43943685D01*
X112840225Y-43943685D02*
X112911653Y-44086542D01*
X112911653Y-44086542D02*
X112911653Y-44300828D01*
X112911653Y-44300828D02*
X112840225Y-44443685D01*
X112840225Y-44443685D02*
X112768796Y-44515114D01*
X112768796Y-44515114D02*
X112625939Y-44586542D01*
X112625939Y-44586542D02*
X112054510Y-44586542D01*
X114554510Y-44300828D02*
X114911653Y-45300828D01*
X114911653Y-45300828D02*
X115268796Y-44300828D01*
X116125939Y-43800828D02*
X116268796Y-43800828D01*
X116268796Y-43800828D02*
X116411653Y-43872257D01*
X116411653Y-43872257D02*
X116483082Y-43943685D01*
X116483082Y-43943685D02*
X116554510Y-44086542D01*
X116554510Y-44086542D02*
X116625939Y-44372257D01*
X116625939Y-44372257D02*
X116625939Y-44729400D01*
X116625939Y-44729400D02*
X116554510Y-45015114D01*
X116554510Y-45015114D02*
X116483082Y-45157971D01*
X116483082Y-45157971D02*
X116411653Y-45229400D01*
X116411653Y-45229400D02*
X116268796Y-45300828D01*
X116268796Y-45300828D02*
X116125939Y-45300828D01*
X116125939Y-45300828D02*
X115983082Y-45229400D01*
X115983082Y-45229400D02*
X115911653Y-45157971D01*
X115911653Y-45157971D02*
X115840224Y-45015114D01*
X115840224Y-45015114D02*
X115768796Y-44729400D01*
X115768796Y-44729400D02*
X115768796Y-44372257D01*
X115768796Y-44372257D02*
X115840224Y-44086542D01*
X115840224Y-44086542D02*
X115911653Y-43943685D01*
X115911653Y-43943685D02*
X115983082Y-43872257D01*
X115983082Y-43872257D02*
X116125939Y-43800828D01*
X117268795Y-45157971D02*
X117340224Y-45229400D01*
X117340224Y-45229400D02*
X117268795Y-45300828D01*
X117268795Y-45300828D02*
X117197367Y-45229400D01*
X117197367Y-45229400D02*
X117268795Y-45157971D01*
X117268795Y-45157971D02*
X117268795Y-45300828D01*
X118768796Y-45300828D02*
X117911653Y-45300828D01*
X118340224Y-45300828D02*
X118340224Y-43800828D01*
X118340224Y-43800828D02*
X118197367Y-44015114D01*
X118197367Y-44015114D02*
X118054510Y-44157971D01*
X118054510Y-44157971D02*
X117911653Y-44229400D01*
D11*
X135000000Y-105000000D02*
X160000000Y-105000000D01*
X160000000Y-140000000D01*
X135000000Y-140000000D01*
X135000000Y-105000000D01*
D12*
X94857142Y-79834819D02*
X94523809Y-79358628D01*
X94285714Y-79834819D02*
X94285714Y-78834819D01*
X94285714Y-78834819D02*
X94666666Y-78834819D01*
X94666666Y-78834819D02*
X94761904Y-78882438D01*
X94761904Y-78882438D02*
X94809523Y-78930057D01*
X94809523Y-78930057D02*
X94857142Y-79025295D01*
X94857142Y-79025295D02*
X94857142Y-79168152D01*
X94857142Y-79168152D02*
X94809523Y-79263390D01*
X94809523Y-79263390D02*
X94761904Y-79311009D01*
X94761904Y-79311009D02*
X94666666Y-79358628D01*
X94666666Y-79358628D02*
X94285714Y-79358628D01*
X95809523Y-79834819D02*
X95238095Y-79834819D01*
X95523809Y-79834819D02*
X95523809Y-78834819D01*
X95523809Y-78834819D02*
X95428571Y-78977676D01*
X95428571Y-78977676D02*
X95333333Y-79072914D01*
X95333333Y-79072914D02*
X95238095Y-79120533D01*
X96666666Y-78834819D02*
X96476190Y-78834819D01*
X96476190Y-78834819D02*
X96380952Y-78882438D01*
X96380952Y-78882438D02*
X96333333Y-78930057D01*
X96333333Y-78930057D02*
X96238095Y-79072914D01*
X96238095Y-79072914D02*
X96190476Y-79263390D01*
X96190476Y-79263390D02*
X96190476Y-79644342D01*
X96190476Y-79644342D02*
X96238095Y-79739580D01*
X96238095Y-79739580D02*
X96285714Y-79787200D01*
X96285714Y-79787200D02*
X96380952Y-79834819D01*
X96380952Y-79834819D02*
X96571428Y-79834819D01*
X96571428Y-79834819D02*
X96666666Y-79787200D01*
X96666666Y-79787200D02*
X96714285Y-79739580D01*
X96714285Y-79739580D02*
X96761904Y-79644342D01*
X96761904Y-79644342D02*
X96761904Y-79406247D01*
X96761904Y-79406247D02*
X96714285Y-79311009D01*
X96714285Y-79311009D02*
X96666666Y-79263390D01*
X96666666Y-79263390D02*
X96571428Y-79215771D01*
X96571428Y-79215771D02*
X96380952Y-79215771D01*
X96380952Y-79215771D02*
X96285714Y-79263390D01*
X96285714Y-79263390D02*
X96238095Y-79311009D01*
X96238095Y-79311009D02*
X96190476Y-79406247D01*
X92383333Y-70834819D02*
X92050000Y-70358628D01*
X91811905Y-70834819D02*
X91811905Y-69834819D01*
X91811905Y-69834819D02*
X92192857Y-69834819D01*
X92192857Y-69834819D02*
X92288095Y-69882438D01*
X92288095Y-69882438D02*
X92335714Y-69930057D01*
X92335714Y-69930057D02*
X92383333Y-70025295D01*
X92383333Y-70025295D02*
X92383333Y-70168152D01*
X92383333Y-70168152D02*
X92335714Y-70263390D01*
X92335714Y-70263390D02*
X92288095Y-70311009D01*
X92288095Y-70311009D02*
X92192857Y-70358628D01*
X92192857Y-70358628D02*
X91811905Y-70358628D01*
X93335714Y-70834819D02*
X92764286Y-70834819D01*
X93050000Y-70834819D02*
X93050000Y-69834819D01*
X93050000Y-69834819D02*
X92954762Y-69977676D01*
X92954762Y-69977676D02*
X92859524Y-70072914D01*
X92859524Y-70072914D02*
X92764286Y-70120533D01*
X120859580Y-47104166D02*
X120907200Y-47151785D01*
X120907200Y-47151785D02*
X120954819Y-47294642D01*
X120954819Y-47294642D02*
X120954819Y-47389880D01*
X120954819Y-47389880D02*
X120907200Y-47532737D01*
X120907200Y-47532737D02*
X120811961Y-47627975D01*
X120811961Y-47627975D02*
X120716723Y-47675594D01*
X120716723Y-47675594D02*
X120526247Y-47723213D01*
X120526247Y-47723213D02*
X120383390Y-47723213D01*
X120383390Y-47723213D02*
X120192914Y-47675594D01*
X120192914Y-47675594D02*
X120097676Y-47627975D01*
X120097676Y-47627975D02*
X120002438Y-47532737D01*
X120002438Y-47532737D02*
X119954819Y-47389880D01*
X119954819Y-47389880D02*
X119954819Y-47294642D01*
X119954819Y-47294642D02*
X120002438Y-47151785D01*
X120002438Y-47151785D02*
X120050057Y-47104166D01*
X120050057Y-46723213D02*
X120002438Y-46675594D01*
X120002438Y-46675594D02*
X119954819Y-46580356D01*
X119954819Y-46580356D02*
X119954819Y-46342261D01*
X119954819Y-46342261D02*
X120002438Y-46247023D01*
X120002438Y-46247023D02*
X120050057Y-46199404D01*
X120050057Y-46199404D02*
X120145295Y-46151785D01*
X120145295Y-46151785D02*
X120240533Y-46151785D01*
X120240533Y-46151785D02*
X120383390Y-46199404D01*
X120383390Y-46199404D02*
X120954819Y-46770832D01*
X120954819Y-46770832D02*
X120954819Y-46151785D01*
X156256905Y-54494819D02*
X156256905Y-53494819D01*
X156256905Y-53494819D02*
X156495000Y-53494819D01*
X156495000Y-53494819D02*
X156637857Y-53542438D01*
X156637857Y-53542438D02*
X156733095Y-53637676D01*
X156733095Y-53637676D02*
X156780714Y-53732914D01*
X156780714Y-53732914D02*
X156828333Y-53923390D01*
X156828333Y-53923390D02*
X156828333Y-54066247D01*
X156828333Y-54066247D02*
X156780714Y-54256723D01*
X156780714Y-54256723D02*
X156733095Y-54351961D01*
X156733095Y-54351961D02*
X156637857Y-54447200D01*
X156637857Y-54447200D02*
X156495000Y-54494819D01*
X156495000Y-54494819D02*
X156256905Y-54494819D01*
X157209286Y-53590057D02*
X157256905Y-53542438D01*
X157256905Y-53542438D02*
X157352143Y-53494819D01*
X157352143Y-53494819D02*
X157590238Y-53494819D01*
X157590238Y-53494819D02*
X157685476Y-53542438D01*
X157685476Y-53542438D02*
X157733095Y-53590057D01*
X157733095Y-53590057D02*
X157780714Y-53685295D01*
X157780714Y-53685295D02*
X157780714Y-53780533D01*
X157780714Y-53780533D02*
X157733095Y-53923390D01*
X157733095Y-53923390D02*
X157161667Y-54494819D01*
X157161667Y-54494819D02*
X157780714Y-54494819D01*
X147833333Y-52284819D02*
X147500000Y-51808628D01*
X147261905Y-52284819D02*
X147261905Y-51284819D01*
X147261905Y-51284819D02*
X147642857Y-51284819D01*
X147642857Y-51284819D02*
X147738095Y-51332438D01*
X147738095Y-51332438D02*
X147785714Y-51380057D01*
X147785714Y-51380057D02*
X147833333Y-51475295D01*
X147833333Y-51475295D02*
X147833333Y-51618152D01*
X147833333Y-51618152D02*
X147785714Y-51713390D01*
X147785714Y-51713390D02*
X147738095Y-51761009D01*
X147738095Y-51761009D02*
X147642857Y-51808628D01*
X147642857Y-51808628D02*
X147261905Y-51808628D01*
X148166667Y-51284819D02*
X148785714Y-51284819D01*
X148785714Y-51284819D02*
X148452381Y-51665771D01*
X148452381Y-51665771D02*
X148595238Y-51665771D01*
X148595238Y-51665771D02*
X148690476Y-51713390D01*
X148690476Y-51713390D02*
X148738095Y-51761009D01*
X148738095Y-51761009D02*
X148785714Y-51856247D01*
X148785714Y-51856247D02*
X148785714Y-52094342D01*
X148785714Y-52094342D02*
X148738095Y-52189580D01*
X148738095Y-52189580D02*
X148690476Y-52237200D01*
X148690476Y-52237200D02*
X148595238Y-52284819D01*
X148595238Y-52284819D02*
X148309524Y-52284819D01*
X148309524Y-52284819D02*
X148214286Y-52237200D01*
X148214286Y-52237200D02*
X148166667Y-52189580D01*
X123857142Y-125454819D02*
X123523809Y-124978628D01*
X123285714Y-125454819D02*
X123285714Y-124454819D01*
X123285714Y-124454819D02*
X123666666Y-124454819D01*
X123666666Y-124454819D02*
X123761904Y-124502438D01*
X123761904Y-124502438D02*
X123809523Y-124550057D01*
X123809523Y-124550057D02*
X123857142Y-124645295D01*
X123857142Y-124645295D02*
X123857142Y-124788152D01*
X123857142Y-124788152D02*
X123809523Y-124883390D01*
X123809523Y-124883390D02*
X123761904Y-124931009D01*
X123761904Y-124931009D02*
X123666666Y-124978628D01*
X123666666Y-124978628D02*
X123285714Y-124978628D01*
X124809523Y-125454819D02*
X124238095Y-125454819D01*
X124523809Y-125454819D02*
X124523809Y-124454819D01*
X124523809Y-124454819D02*
X124428571Y-124597676D01*
X124428571Y-124597676D02*
X124333333Y-124692914D01*
X124333333Y-124692914D02*
X124238095Y-124740533D01*
X125714285Y-124454819D02*
X125238095Y-124454819D01*
X125238095Y-124454819D02*
X125190476Y-124931009D01*
X125190476Y-124931009D02*
X125238095Y-124883390D01*
X125238095Y-124883390D02*
X125333333Y-124835771D01*
X125333333Y-124835771D02*
X125571428Y-124835771D01*
X125571428Y-124835771D02*
X125666666Y-124883390D01*
X125666666Y-124883390D02*
X125714285Y-124931009D01*
X125714285Y-124931009D02*
X125761904Y-125026247D01*
X125761904Y-125026247D02*
X125761904Y-125264342D01*
X125761904Y-125264342D02*
X125714285Y-125359580D01*
X125714285Y-125359580D02*
X125666666Y-125407200D01*
X125666666Y-125407200D02*
X125571428Y-125454819D01*
X125571428Y-125454819D02*
X125333333Y-125454819D01*
X125333333Y-125454819D02*
X125238095Y-125407200D01*
X125238095Y-125407200D02*
X125190476Y-125359580D01*
X111666666Y-126954819D02*
X111666666Y-127669104D01*
X111666666Y-127669104D02*
X111619047Y-127811961D01*
X111619047Y-127811961D02*
X111523809Y-127907200D01*
X111523809Y-127907200D02*
X111380952Y-127954819D01*
X111380952Y-127954819D02*
X111285714Y-127954819D01*
X112666666Y-127954819D02*
X112095238Y-127954819D01*
X112380952Y-127954819D02*
X112380952Y-126954819D01*
X112380952Y-126954819D02*
X112285714Y-127097676D01*
X112285714Y-127097676D02*
X112190476Y-127192914D01*
X112190476Y-127192914D02*
X112095238Y-127240533D01*
X122594819Y-67191904D02*
X123404342Y-67191904D01*
X123404342Y-67191904D02*
X123499580Y-67144285D01*
X123499580Y-67144285D02*
X123547200Y-67096666D01*
X123547200Y-67096666D02*
X123594819Y-67001428D01*
X123594819Y-67001428D02*
X123594819Y-66810952D01*
X123594819Y-66810952D02*
X123547200Y-66715714D01*
X123547200Y-66715714D02*
X123499580Y-66668095D01*
X123499580Y-66668095D02*
X123404342Y-66620476D01*
X123404342Y-66620476D02*
X122594819Y-66620476D01*
X123594819Y-65620476D02*
X123594819Y-66191904D01*
X123594819Y-65906190D02*
X122594819Y-65906190D01*
X122594819Y-65906190D02*
X122737676Y-66001428D01*
X122737676Y-66001428D02*
X122832914Y-66096666D01*
X122832914Y-66096666D02*
X122880533Y-66191904D01*
X105430833Y-61624819D02*
X105097500Y-61148628D01*
X104859405Y-61624819D02*
X104859405Y-60624819D01*
X104859405Y-60624819D02*
X105240357Y-60624819D01*
X105240357Y-60624819D02*
X105335595Y-60672438D01*
X105335595Y-60672438D02*
X105383214Y-60720057D01*
X105383214Y-60720057D02*
X105430833Y-60815295D01*
X105430833Y-60815295D02*
X105430833Y-60958152D01*
X105430833Y-60958152D02*
X105383214Y-61053390D01*
X105383214Y-61053390D02*
X105335595Y-61101009D01*
X105335595Y-61101009D02*
X105240357Y-61148628D01*
X105240357Y-61148628D02*
X104859405Y-61148628D01*
X106002262Y-61053390D02*
X105907024Y-61005771D01*
X105907024Y-61005771D02*
X105859405Y-60958152D01*
X105859405Y-60958152D02*
X105811786Y-60862914D01*
X105811786Y-60862914D02*
X105811786Y-60815295D01*
X105811786Y-60815295D02*
X105859405Y-60720057D01*
X105859405Y-60720057D02*
X105907024Y-60672438D01*
X105907024Y-60672438D02*
X106002262Y-60624819D01*
X106002262Y-60624819D02*
X106192738Y-60624819D01*
X106192738Y-60624819D02*
X106287976Y-60672438D01*
X106287976Y-60672438D02*
X106335595Y-60720057D01*
X106335595Y-60720057D02*
X106383214Y-60815295D01*
X106383214Y-60815295D02*
X106383214Y-60862914D01*
X106383214Y-60862914D02*
X106335595Y-60958152D01*
X106335595Y-60958152D02*
X106287976Y-61005771D01*
X106287976Y-61005771D02*
X106192738Y-61053390D01*
X106192738Y-61053390D02*
X106002262Y-61053390D01*
X106002262Y-61053390D02*
X105907024Y-61101009D01*
X105907024Y-61101009D02*
X105859405Y-61148628D01*
X105859405Y-61148628D02*
X105811786Y-61243866D01*
X105811786Y-61243866D02*
X105811786Y-61434342D01*
X105811786Y-61434342D02*
X105859405Y-61529580D01*
X105859405Y-61529580D02*
X105907024Y-61577200D01*
X105907024Y-61577200D02*
X106002262Y-61624819D01*
X106002262Y-61624819D02*
X106192738Y-61624819D01*
X106192738Y-61624819D02*
X106287976Y-61577200D01*
X106287976Y-61577200D02*
X106335595Y-61529580D01*
X106335595Y-61529580D02*
X106383214Y-61434342D01*
X106383214Y-61434342D02*
X106383214Y-61243866D01*
X106383214Y-61243866D02*
X106335595Y-61148628D01*
X106335595Y-61148628D02*
X106287976Y-61101009D01*
X106287976Y-61101009D02*
X106192738Y-61053390D01*
X104765833Y-48699580D02*
X104718214Y-48747200D01*
X104718214Y-48747200D02*
X104575357Y-48794819D01*
X104575357Y-48794819D02*
X104480119Y-48794819D01*
X104480119Y-48794819D02*
X104337262Y-48747200D01*
X104337262Y-48747200D02*
X104242024Y-48651961D01*
X104242024Y-48651961D02*
X104194405Y-48556723D01*
X104194405Y-48556723D02*
X104146786Y-48366247D01*
X104146786Y-48366247D02*
X104146786Y-48223390D01*
X104146786Y-48223390D02*
X104194405Y-48032914D01*
X104194405Y-48032914D02*
X104242024Y-47937676D01*
X104242024Y-47937676D02*
X104337262Y-47842438D01*
X104337262Y-47842438D02*
X104480119Y-47794819D01*
X104480119Y-47794819D02*
X104575357Y-47794819D01*
X104575357Y-47794819D02*
X104718214Y-47842438D01*
X104718214Y-47842438D02*
X104765833Y-47890057D01*
X105099167Y-47794819D02*
X105718214Y-47794819D01*
X105718214Y-47794819D02*
X105384881Y-48175771D01*
X105384881Y-48175771D02*
X105527738Y-48175771D01*
X105527738Y-48175771D02*
X105622976Y-48223390D01*
X105622976Y-48223390D02*
X105670595Y-48271009D01*
X105670595Y-48271009D02*
X105718214Y-48366247D01*
X105718214Y-48366247D02*
X105718214Y-48604342D01*
X105718214Y-48604342D02*
X105670595Y-48699580D01*
X105670595Y-48699580D02*
X105622976Y-48747200D01*
X105622976Y-48747200D02*
X105527738Y-48794819D01*
X105527738Y-48794819D02*
X105242024Y-48794819D01*
X105242024Y-48794819D02*
X105146786Y-48747200D01*
X105146786Y-48747200D02*
X105099167Y-48699580D01*
X149404761Y-56150057D02*
X149309523Y-56102438D01*
X149309523Y-56102438D02*
X149214285Y-56007200D01*
X149214285Y-56007200D02*
X149071428Y-55864342D01*
X149071428Y-55864342D02*
X148976190Y-55816723D01*
X148976190Y-55816723D02*
X148880952Y-55816723D01*
X148928571Y-56054819D02*
X148833333Y-56007200D01*
X148833333Y-56007200D02*
X148738095Y-55911961D01*
X148738095Y-55911961D02*
X148690476Y-55721485D01*
X148690476Y-55721485D02*
X148690476Y-55388152D01*
X148690476Y-55388152D02*
X148738095Y-55197676D01*
X148738095Y-55197676D02*
X148833333Y-55102438D01*
X148833333Y-55102438D02*
X148928571Y-55054819D01*
X148928571Y-55054819D02*
X149119047Y-55054819D01*
X149119047Y-55054819D02*
X149214285Y-55102438D01*
X149214285Y-55102438D02*
X149309523Y-55197676D01*
X149309523Y-55197676D02*
X149357142Y-55388152D01*
X149357142Y-55388152D02*
X149357142Y-55721485D01*
X149357142Y-55721485D02*
X149309523Y-55911961D01*
X149309523Y-55911961D02*
X149214285Y-56007200D01*
X149214285Y-56007200D02*
X149119047Y-56054819D01*
X149119047Y-56054819D02*
X148928571Y-56054819D01*
X150309523Y-56054819D02*
X149738095Y-56054819D01*
X150023809Y-56054819D02*
X150023809Y-55054819D01*
X150023809Y-55054819D02*
X149928571Y-55197676D01*
X149928571Y-55197676D02*
X149833333Y-55292914D01*
X149833333Y-55292914D02*
X149738095Y-55340533D01*
X137684819Y-111333333D02*
X138399104Y-111333333D01*
X138399104Y-111333333D02*
X138541961Y-111380952D01*
X138541961Y-111380952D02*
X138637200Y-111476190D01*
X138637200Y-111476190D02*
X138684819Y-111619047D01*
X138684819Y-111619047D02*
X138684819Y-111714285D01*
X137684819Y-110380952D02*
X137684819Y-110857142D01*
X137684819Y-110857142D02*
X138161009Y-110904761D01*
X138161009Y-110904761D02*
X138113390Y-110857142D01*
X138113390Y-110857142D02*
X138065771Y-110761904D01*
X138065771Y-110761904D02*
X138065771Y-110523809D01*
X138065771Y-110523809D02*
X138113390Y-110428571D01*
X138113390Y-110428571D02*
X138161009Y-110380952D01*
X138161009Y-110380952D02*
X138256247Y-110333333D01*
X138256247Y-110333333D02*
X138494342Y-110333333D01*
X138494342Y-110333333D02*
X138589580Y-110380952D01*
X138589580Y-110380952D02*
X138637200Y-110428571D01*
X138637200Y-110428571D02*
X138684819Y-110523809D01*
X138684819Y-110523809D02*
X138684819Y-110761904D01*
X138684819Y-110761904D02*
X138637200Y-110857142D01*
X138637200Y-110857142D02*
X138589580Y-110904761D01*
X173833333Y-103954819D02*
X173357143Y-103954819D01*
X173357143Y-103954819D02*
X173357143Y-102954819D01*
X174690476Y-103954819D02*
X174119048Y-103954819D01*
X174404762Y-103954819D02*
X174404762Y-102954819D01*
X174404762Y-102954819D02*
X174309524Y-103097676D01*
X174309524Y-103097676D02*
X174214286Y-103192914D01*
X174214286Y-103192914D02*
X174119048Y-103240533D01*
X124609580Y-90666666D02*
X124657200Y-90714285D01*
X124657200Y-90714285D02*
X124704819Y-90857142D01*
X124704819Y-90857142D02*
X124704819Y-90952380D01*
X124704819Y-90952380D02*
X124657200Y-91095237D01*
X124657200Y-91095237D02*
X124561961Y-91190475D01*
X124561961Y-91190475D02*
X124466723Y-91238094D01*
X124466723Y-91238094D02*
X124276247Y-91285713D01*
X124276247Y-91285713D02*
X124133390Y-91285713D01*
X124133390Y-91285713D02*
X123942914Y-91238094D01*
X123942914Y-91238094D02*
X123847676Y-91190475D01*
X123847676Y-91190475D02*
X123752438Y-91095237D01*
X123752438Y-91095237D02*
X123704819Y-90952380D01*
X123704819Y-90952380D02*
X123704819Y-90857142D01*
X123704819Y-90857142D02*
X123752438Y-90714285D01*
X123752438Y-90714285D02*
X123800057Y-90666666D01*
X124038152Y-89809523D02*
X124704819Y-89809523D01*
X123657200Y-90047618D02*
X124371485Y-90285713D01*
X124371485Y-90285713D02*
X124371485Y-89666666D01*
X154857142Y-66784819D02*
X154523809Y-66308628D01*
X154285714Y-66784819D02*
X154285714Y-65784819D01*
X154285714Y-65784819D02*
X154666666Y-65784819D01*
X154666666Y-65784819D02*
X154761904Y-65832438D01*
X154761904Y-65832438D02*
X154809523Y-65880057D01*
X154809523Y-65880057D02*
X154857142Y-65975295D01*
X154857142Y-65975295D02*
X154857142Y-66118152D01*
X154857142Y-66118152D02*
X154809523Y-66213390D01*
X154809523Y-66213390D02*
X154761904Y-66261009D01*
X154761904Y-66261009D02*
X154666666Y-66308628D01*
X154666666Y-66308628D02*
X154285714Y-66308628D01*
X155809523Y-66784819D02*
X155238095Y-66784819D01*
X155523809Y-66784819D02*
X155523809Y-65784819D01*
X155523809Y-65784819D02*
X155428571Y-65927676D01*
X155428571Y-65927676D02*
X155333333Y-66022914D01*
X155333333Y-66022914D02*
X155238095Y-66070533D01*
X156761904Y-66784819D02*
X156190476Y-66784819D01*
X156476190Y-66784819D02*
X156476190Y-65784819D01*
X156476190Y-65784819D02*
X156380952Y-65927676D01*
X156380952Y-65927676D02*
X156285714Y-66022914D01*
X156285714Y-66022914D02*
X156190476Y-66070533D01*
X178179166Y-121611009D02*
X177845833Y-121611009D01*
X177845833Y-122134819D02*
X177845833Y-121134819D01*
X177845833Y-121134819D02*
X178322023Y-121134819D01*
X179226785Y-122134819D02*
X178655357Y-122134819D01*
X178941071Y-122134819D02*
X178941071Y-121134819D01*
X178941071Y-121134819D02*
X178845833Y-121277676D01*
X178845833Y-121277676D02*
X178750595Y-121372914D01*
X178750595Y-121372914D02*
X178655357Y-121420533D01*
X166141905Y-92674819D02*
X166141905Y-91674819D01*
X166141905Y-91674819D02*
X166380000Y-91674819D01*
X166380000Y-91674819D02*
X166522857Y-91722438D01*
X166522857Y-91722438D02*
X166618095Y-91817676D01*
X166618095Y-91817676D02*
X166665714Y-91912914D01*
X166665714Y-91912914D02*
X166713333Y-92103390D01*
X166713333Y-92103390D02*
X166713333Y-92246247D01*
X166713333Y-92246247D02*
X166665714Y-92436723D01*
X166665714Y-92436723D02*
X166618095Y-92531961D01*
X166618095Y-92531961D02*
X166522857Y-92627200D01*
X166522857Y-92627200D02*
X166380000Y-92674819D01*
X166380000Y-92674819D02*
X166141905Y-92674819D01*
X167618095Y-91674819D02*
X167141905Y-91674819D01*
X167141905Y-91674819D02*
X167094286Y-92151009D01*
X167094286Y-92151009D02*
X167141905Y-92103390D01*
X167141905Y-92103390D02*
X167237143Y-92055771D01*
X167237143Y-92055771D02*
X167475238Y-92055771D01*
X167475238Y-92055771D02*
X167570476Y-92103390D01*
X167570476Y-92103390D02*
X167618095Y-92151009D01*
X167618095Y-92151009D02*
X167665714Y-92246247D01*
X167665714Y-92246247D02*
X167665714Y-92484342D01*
X167665714Y-92484342D02*
X167618095Y-92579580D01*
X167618095Y-92579580D02*
X167570476Y-92627200D01*
X167570476Y-92627200D02*
X167475238Y-92674819D01*
X167475238Y-92674819D02*
X167237143Y-92674819D01*
X167237143Y-92674819D02*
X167141905Y-92627200D01*
X167141905Y-92627200D02*
X167094286Y-92579580D01*
X174238095Y-91554819D02*
X174238095Y-90554819D01*
X174809523Y-91554819D02*
X174380952Y-90983390D01*
X174809523Y-90554819D02*
X174238095Y-91126247D01*
X105430833Y-57624819D02*
X105097500Y-57148628D01*
X104859405Y-57624819D02*
X104859405Y-56624819D01*
X104859405Y-56624819D02*
X105240357Y-56624819D01*
X105240357Y-56624819D02*
X105335595Y-56672438D01*
X105335595Y-56672438D02*
X105383214Y-56720057D01*
X105383214Y-56720057D02*
X105430833Y-56815295D01*
X105430833Y-56815295D02*
X105430833Y-56958152D01*
X105430833Y-56958152D02*
X105383214Y-57053390D01*
X105383214Y-57053390D02*
X105335595Y-57101009D01*
X105335595Y-57101009D02*
X105240357Y-57148628D01*
X105240357Y-57148628D02*
X104859405Y-57148628D01*
X105907024Y-57624819D02*
X106097500Y-57624819D01*
X106097500Y-57624819D02*
X106192738Y-57577200D01*
X106192738Y-57577200D02*
X106240357Y-57529580D01*
X106240357Y-57529580D02*
X106335595Y-57386723D01*
X106335595Y-57386723D02*
X106383214Y-57196247D01*
X106383214Y-57196247D02*
X106383214Y-56815295D01*
X106383214Y-56815295D02*
X106335595Y-56720057D01*
X106335595Y-56720057D02*
X106287976Y-56672438D01*
X106287976Y-56672438D02*
X106192738Y-56624819D01*
X106192738Y-56624819D02*
X106002262Y-56624819D01*
X106002262Y-56624819D02*
X105907024Y-56672438D01*
X105907024Y-56672438D02*
X105859405Y-56720057D01*
X105859405Y-56720057D02*
X105811786Y-56815295D01*
X105811786Y-56815295D02*
X105811786Y-57053390D01*
X105811786Y-57053390D02*
X105859405Y-57148628D01*
X105859405Y-57148628D02*
X105907024Y-57196247D01*
X105907024Y-57196247D02*
X106002262Y-57243866D01*
X106002262Y-57243866D02*
X106192738Y-57243866D01*
X106192738Y-57243866D02*
X106287976Y-57196247D01*
X106287976Y-57196247D02*
X106335595Y-57148628D01*
X106335595Y-57148628D02*
X106383214Y-57053390D01*
X102857142Y-95124819D02*
X102523809Y-94648628D01*
X102285714Y-95124819D02*
X102285714Y-94124819D01*
X102285714Y-94124819D02*
X102666666Y-94124819D01*
X102666666Y-94124819D02*
X102761904Y-94172438D01*
X102761904Y-94172438D02*
X102809523Y-94220057D01*
X102809523Y-94220057D02*
X102857142Y-94315295D01*
X102857142Y-94315295D02*
X102857142Y-94458152D01*
X102857142Y-94458152D02*
X102809523Y-94553390D01*
X102809523Y-94553390D02*
X102761904Y-94601009D01*
X102761904Y-94601009D02*
X102666666Y-94648628D01*
X102666666Y-94648628D02*
X102285714Y-94648628D01*
X103809523Y-95124819D02*
X103238095Y-95124819D01*
X103523809Y-95124819D02*
X103523809Y-94124819D01*
X103523809Y-94124819D02*
X103428571Y-94267676D01*
X103428571Y-94267676D02*
X103333333Y-94362914D01*
X103333333Y-94362914D02*
X103238095Y-94410533D01*
X104666666Y-94458152D02*
X104666666Y-95124819D01*
X104428571Y-94077200D02*
X104190476Y-94791485D01*
X104190476Y-94791485D02*
X104809523Y-94791485D01*
X110055833Y-76624819D02*
X109722500Y-76148628D01*
X109484405Y-76624819D02*
X109484405Y-75624819D01*
X109484405Y-75624819D02*
X109865357Y-75624819D01*
X109865357Y-75624819D02*
X109960595Y-75672438D01*
X109960595Y-75672438D02*
X110008214Y-75720057D01*
X110008214Y-75720057D02*
X110055833Y-75815295D01*
X110055833Y-75815295D02*
X110055833Y-75958152D01*
X110055833Y-75958152D02*
X110008214Y-76053390D01*
X110008214Y-76053390D02*
X109960595Y-76101009D01*
X109960595Y-76101009D02*
X109865357Y-76148628D01*
X109865357Y-76148628D02*
X109484405Y-76148628D01*
X110436786Y-75720057D02*
X110484405Y-75672438D01*
X110484405Y-75672438D02*
X110579643Y-75624819D01*
X110579643Y-75624819D02*
X110817738Y-75624819D01*
X110817738Y-75624819D02*
X110912976Y-75672438D01*
X110912976Y-75672438D02*
X110960595Y-75720057D01*
X110960595Y-75720057D02*
X111008214Y-75815295D01*
X111008214Y-75815295D02*
X111008214Y-75910533D01*
X111008214Y-75910533D02*
X110960595Y-76053390D01*
X110960595Y-76053390D02*
X110389167Y-76624819D01*
X110389167Y-76624819D02*
X111008214Y-76624819D01*
X158857142Y-66784819D02*
X158523809Y-66308628D01*
X158285714Y-66784819D02*
X158285714Y-65784819D01*
X158285714Y-65784819D02*
X158666666Y-65784819D01*
X158666666Y-65784819D02*
X158761904Y-65832438D01*
X158761904Y-65832438D02*
X158809523Y-65880057D01*
X158809523Y-65880057D02*
X158857142Y-65975295D01*
X158857142Y-65975295D02*
X158857142Y-66118152D01*
X158857142Y-66118152D02*
X158809523Y-66213390D01*
X158809523Y-66213390D02*
X158761904Y-66261009D01*
X158761904Y-66261009D02*
X158666666Y-66308628D01*
X158666666Y-66308628D02*
X158285714Y-66308628D01*
X159809523Y-66784819D02*
X159238095Y-66784819D01*
X159523809Y-66784819D02*
X159523809Y-65784819D01*
X159523809Y-65784819D02*
X159428571Y-65927676D01*
X159428571Y-65927676D02*
X159333333Y-66022914D01*
X159333333Y-66022914D02*
X159238095Y-66070533D01*
X160190476Y-65880057D02*
X160238095Y-65832438D01*
X160238095Y-65832438D02*
X160333333Y-65784819D01*
X160333333Y-65784819D02*
X160571428Y-65784819D01*
X160571428Y-65784819D02*
X160666666Y-65832438D01*
X160666666Y-65832438D02*
X160714285Y-65880057D01*
X160714285Y-65880057D02*
X160761904Y-65975295D01*
X160761904Y-65975295D02*
X160761904Y-66070533D01*
X160761904Y-66070533D02*
X160714285Y-66213390D01*
X160714285Y-66213390D02*
X160142857Y-66784819D01*
X160142857Y-66784819D02*
X160761904Y-66784819D01*
X114833333Y-125359580D02*
X114785714Y-125407200D01*
X114785714Y-125407200D02*
X114642857Y-125454819D01*
X114642857Y-125454819D02*
X114547619Y-125454819D01*
X114547619Y-125454819D02*
X114404762Y-125407200D01*
X114404762Y-125407200D02*
X114309524Y-125311961D01*
X114309524Y-125311961D02*
X114261905Y-125216723D01*
X114261905Y-125216723D02*
X114214286Y-125026247D01*
X114214286Y-125026247D02*
X114214286Y-124883390D01*
X114214286Y-124883390D02*
X114261905Y-124692914D01*
X114261905Y-124692914D02*
X114309524Y-124597676D01*
X114309524Y-124597676D02*
X114404762Y-124502438D01*
X114404762Y-124502438D02*
X114547619Y-124454819D01*
X114547619Y-124454819D02*
X114642857Y-124454819D01*
X114642857Y-124454819D02*
X114785714Y-124502438D01*
X114785714Y-124502438D02*
X114833333Y-124550057D01*
X115690476Y-124454819D02*
X115500000Y-124454819D01*
X115500000Y-124454819D02*
X115404762Y-124502438D01*
X115404762Y-124502438D02*
X115357143Y-124550057D01*
X115357143Y-124550057D02*
X115261905Y-124692914D01*
X115261905Y-124692914D02*
X115214286Y-124883390D01*
X115214286Y-124883390D02*
X115214286Y-125264342D01*
X115214286Y-125264342D02*
X115261905Y-125359580D01*
X115261905Y-125359580D02*
X115309524Y-125407200D01*
X115309524Y-125407200D02*
X115404762Y-125454819D01*
X115404762Y-125454819D02*
X115595238Y-125454819D01*
X115595238Y-125454819D02*
X115690476Y-125407200D01*
X115690476Y-125407200D02*
X115738095Y-125359580D01*
X115738095Y-125359580D02*
X115785714Y-125264342D01*
X115785714Y-125264342D02*
X115785714Y-125026247D01*
X115785714Y-125026247D02*
X115738095Y-124931009D01*
X115738095Y-124931009D02*
X115690476Y-124883390D01*
X115690476Y-124883390D02*
X115595238Y-124835771D01*
X115595238Y-124835771D02*
X115404762Y-124835771D01*
X115404762Y-124835771D02*
X115309524Y-124883390D01*
X115309524Y-124883390D02*
X115261905Y-124931009D01*
X115261905Y-124931009D02*
X115214286Y-125026247D01*
X115454642Y-79624819D02*
X115121309Y-79148628D01*
X114883214Y-79624819D02*
X114883214Y-78624819D01*
X114883214Y-78624819D02*
X115264166Y-78624819D01*
X115264166Y-78624819D02*
X115359404Y-78672438D01*
X115359404Y-78672438D02*
X115407023Y-78720057D01*
X115407023Y-78720057D02*
X115454642Y-78815295D01*
X115454642Y-78815295D02*
X115454642Y-78958152D01*
X115454642Y-78958152D02*
X115407023Y-79053390D01*
X115407023Y-79053390D02*
X115359404Y-79101009D01*
X115359404Y-79101009D02*
X115264166Y-79148628D01*
X115264166Y-79148628D02*
X114883214Y-79148628D01*
X116407023Y-79624819D02*
X115835595Y-79624819D01*
X116121309Y-79624819D02*
X116121309Y-78624819D01*
X116121309Y-78624819D02*
X116026071Y-78767676D01*
X116026071Y-78767676D02*
X115930833Y-78862914D01*
X115930833Y-78862914D02*
X115835595Y-78910533D01*
X116740357Y-78624819D02*
X117359404Y-78624819D01*
X117359404Y-78624819D02*
X117026071Y-79005771D01*
X117026071Y-79005771D02*
X117168928Y-79005771D01*
X117168928Y-79005771D02*
X117264166Y-79053390D01*
X117264166Y-79053390D02*
X117311785Y-79101009D01*
X117311785Y-79101009D02*
X117359404Y-79196247D01*
X117359404Y-79196247D02*
X117359404Y-79434342D01*
X117359404Y-79434342D02*
X117311785Y-79529580D01*
X117311785Y-79529580D02*
X117264166Y-79577200D01*
X117264166Y-79577200D02*
X117168928Y-79624819D01*
X117168928Y-79624819D02*
X116883214Y-79624819D01*
X116883214Y-79624819D02*
X116787976Y-79577200D01*
X116787976Y-79577200D02*
X116740357Y-79529580D01*
X99311905Y-56254819D02*
X99311905Y-55254819D01*
X99311905Y-55254819D02*
X99550000Y-55254819D01*
X99550000Y-55254819D02*
X99692857Y-55302438D01*
X99692857Y-55302438D02*
X99788095Y-55397676D01*
X99788095Y-55397676D02*
X99835714Y-55492914D01*
X99835714Y-55492914D02*
X99883333Y-55683390D01*
X99883333Y-55683390D02*
X99883333Y-55826247D01*
X99883333Y-55826247D02*
X99835714Y-56016723D01*
X99835714Y-56016723D02*
X99788095Y-56111961D01*
X99788095Y-56111961D02*
X99692857Y-56207200D01*
X99692857Y-56207200D02*
X99550000Y-56254819D01*
X99550000Y-56254819D02*
X99311905Y-56254819D01*
X100835714Y-56254819D02*
X100264286Y-56254819D01*
X100550000Y-56254819D02*
X100550000Y-55254819D01*
X100550000Y-55254819D02*
X100454762Y-55397676D01*
X100454762Y-55397676D02*
X100359524Y-55492914D01*
X100359524Y-55492914D02*
X100264286Y-55540533D01*
X173735833Y-50284819D02*
X173402500Y-49808628D01*
X173164405Y-50284819D02*
X173164405Y-49284819D01*
X173164405Y-49284819D02*
X173545357Y-49284819D01*
X173545357Y-49284819D02*
X173640595Y-49332438D01*
X173640595Y-49332438D02*
X173688214Y-49380057D01*
X173688214Y-49380057D02*
X173735833Y-49475295D01*
X173735833Y-49475295D02*
X173735833Y-49618152D01*
X173735833Y-49618152D02*
X173688214Y-49713390D01*
X173688214Y-49713390D02*
X173640595Y-49761009D01*
X173640595Y-49761009D02*
X173545357Y-49808628D01*
X173545357Y-49808628D02*
X173164405Y-49808628D01*
X174592976Y-49284819D02*
X174402500Y-49284819D01*
X174402500Y-49284819D02*
X174307262Y-49332438D01*
X174307262Y-49332438D02*
X174259643Y-49380057D01*
X174259643Y-49380057D02*
X174164405Y-49522914D01*
X174164405Y-49522914D02*
X174116786Y-49713390D01*
X174116786Y-49713390D02*
X174116786Y-50094342D01*
X174116786Y-50094342D02*
X174164405Y-50189580D01*
X174164405Y-50189580D02*
X174212024Y-50237200D01*
X174212024Y-50237200D02*
X174307262Y-50284819D01*
X174307262Y-50284819D02*
X174497738Y-50284819D01*
X174497738Y-50284819D02*
X174592976Y-50237200D01*
X174592976Y-50237200D02*
X174640595Y-50189580D01*
X174640595Y-50189580D02*
X174688214Y-50094342D01*
X174688214Y-50094342D02*
X174688214Y-49856247D01*
X174688214Y-49856247D02*
X174640595Y-49761009D01*
X174640595Y-49761009D02*
X174592976Y-49713390D01*
X174592976Y-49713390D02*
X174497738Y-49665771D01*
X174497738Y-49665771D02*
X174307262Y-49665771D01*
X174307262Y-49665771D02*
X174212024Y-49713390D01*
X174212024Y-49713390D02*
X174164405Y-49761009D01*
X174164405Y-49761009D02*
X174116786Y-49856247D01*
X166235833Y-50284819D02*
X165902500Y-49808628D01*
X165664405Y-50284819D02*
X165664405Y-49284819D01*
X165664405Y-49284819D02*
X166045357Y-49284819D01*
X166045357Y-49284819D02*
X166140595Y-49332438D01*
X166140595Y-49332438D02*
X166188214Y-49380057D01*
X166188214Y-49380057D02*
X166235833Y-49475295D01*
X166235833Y-49475295D02*
X166235833Y-49618152D01*
X166235833Y-49618152D02*
X166188214Y-49713390D01*
X166188214Y-49713390D02*
X166140595Y-49761009D01*
X166140595Y-49761009D02*
X166045357Y-49808628D01*
X166045357Y-49808628D02*
X165664405Y-49808628D01*
X167140595Y-49284819D02*
X166664405Y-49284819D01*
X166664405Y-49284819D02*
X166616786Y-49761009D01*
X166616786Y-49761009D02*
X166664405Y-49713390D01*
X166664405Y-49713390D02*
X166759643Y-49665771D01*
X166759643Y-49665771D02*
X166997738Y-49665771D01*
X166997738Y-49665771D02*
X167092976Y-49713390D01*
X167092976Y-49713390D02*
X167140595Y-49761009D01*
X167140595Y-49761009D02*
X167188214Y-49856247D01*
X167188214Y-49856247D02*
X167188214Y-50094342D01*
X167188214Y-50094342D02*
X167140595Y-50189580D01*
X167140595Y-50189580D02*
X167092976Y-50237200D01*
X167092976Y-50237200D02*
X166997738Y-50284819D01*
X166997738Y-50284819D02*
X166759643Y-50284819D01*
X166759643Y-50284819D02*
X166664405Y-50237200D01*
X166664405Y-50237200D02*
X166616786Y-50189580D01*
X98857142Y-48784819D02*
X98523809Y-48308628D01*
X98285714Y-48784819D02*
X98285714Y-47784819D01*
X98285714Y-47784819D02*
X98666666Y-47784819D01*
X98666666Y-47784819D02*
X98761904Y-47832438D01*
X98761904Y-47832438D02*
X98809523Y-47880057D01*
X98809523Y-47880057D02*
X98857142Y-47975295D01*
X98857142Y-47975295D02*
X98857142Y-48118152D01*
X98857142Y-48118152D02*
X98809523Y-48213390D01*
X98809523Y-48213390D02*
X98761904Y-48261009D01*
X98761904Y-48261009D02*
X98666666Y-48308628D01*
X98666666Y-48308628D02*
X98285714Y-48308628D01*
X99809523Y-48784819D02*
X99238095Y-48784819D01*
X99523809Y-48784819D02*
X99523809Y-47784819D01*
X99523809Y-47784819D02*
X99428571Y-47927676D01*
X99428571Y-47927676D02*
X99333333Y-48022914D01*
X99333333Y-48022914D02*
X99238095Y-48070533D01*
X100428571Y-47784819D02*
X100523809Y-47784819D01*
X100523809Y-47784819D02*
X100619047Y-47832438D01*
X100619047Y-47832438D02*
X100666666Y-47880057D01*
X100666666Y-47880057D02*
X100714285Y-47975295D01*
X100714285Y-47975295D02*
X100761904Y-48165771D01*
X100761904Y-48165771D02*
X100761904Y-48403866D01*
X100761904Y-48403866D02*
X100714285Y-48594342D01*
X100714285Y-48594342D02*
X100666666Y-48689580D01*
X100666666Y-48689580D02*
X100619047Y-48737200D01*
X100619047Y-48737200D02*
X100523809Y-48784819D01*
X100523809Y-48784819D02*
X100428571Y-48784819D01*
X100428571Y-48784819D02*
X100333333Y-48737200D01*
X100333333Y-48737200D02*
X100285714Y-48689580D01*
X100285714Y-48689580D02*
X100238095Y-48594342D01*
X100238095Y-48594342D02*
X100190476Y-48403866D01*
X100190476Y-48403866D02*
X100190476Y-48165771D01*
X100190476Y-48165771D02*
X100238095Y-47975295D01*
X100238095Y-47975295D02*
X100285714Y-47880057D01*
X100285714Y-47880057D02*
X100333333Y-47832438D01*
X100333333Y-47832438D02*
X100428571Y-47784819D01*
X123359580Y-47166666D02*
X123407200Y-47214285D01*
X123407200Y-47214285D02*
X123454819Y-47357142D01*
X123454819Y-47357142D02*
X123454819Y-47452380D01*
X123454819Y-47452380D02*
X123407200Y-47595237D01*
X123407200Y-47595237D02*
X123311961Y-47690475D01*
X123311961Y-47690475D02*
X123216723Y-47738094D01*
X123216723Y-47738094D02*
X123026247Y-47785713D01*
X123026247Y-47785713D02*
X122883390Y-47785713D01*
X122883390Y-47785713D02*
X122692914Y-47738094D01*
X122692914Y-47738094D02*
X122597676Y-47690475D01*
X122597676Y-47690475D02*
X122502438Y-47595237D01*
X122502438Y-47595237D02*
X122454819Y-47452380D01*
X122454819Y-47452380D02*
X122454819Y-47357142D01*
X122454819Y-47357142D02*
X122502438Y-47214285D01*
X122502438Y-47214285D02*
X122550057Y-47166666D01*
X123454819Y-46214285D02*
X123454819Y-46785713D01*
X123454819Y-46499999D02*
X122454819Y-46499999D01*
X122454819Y-46499999D02*
X122597676Y-46595237D01*
X122597676Y-46595237D02*
X122692914Y-46690475D01*
X122692914Y-46690475D02*
X122740533Y-46785713D01*
X126166666Y-126954819D02*
X126166666Y-127669104D01*
X126166666Y-127669104D02*
X126119047Y-127811961D01*
X126119047Y-127811961D02*
X126023809Y-127907200D01*
X126023809Y-127907200D02*
X125880952Y-127954819D01*
X125880952Y-127954819D02*
X125785714Y-127954819D01*
X127071428Y-127288152D02*
X127071428Y-127954819D01*
X126833333Y-126907200D02*
X126595238Y-127621485D01*
X126595238Y-127621485D02*
X127214285Y-127621485D01*
X113666666Y-48564819D02*
X113666666Y-49279104D01*
X113666666Y-49279104D02*
X113619047Y-49421961D01*
X113619047Y-49421961D02*
X113523809Y-49517200D01*
X113523809Y-49517200D02*
X113380952Y-49564819D01*
X113380952Y-49564819D02*
X113285714Y-49564819D01*
X114095238Y-48660057D02*
X114142857Y-48612438D01*
X114142857Y-48612438D02*
X114238095Y-48564819D01*
X114238095Y-48564819D02*
X114476190Y-48564819D01*
X114476190Y-48564819D02*
X114571428Y-48612438D01*
X114571428Y-48612438D02*
X114619047Y-48660057D01*
X114619047Y-48660057D02*
X114666666Y-48755295D01*
X114666666Y-48755295D02*
X114666666Y-48850533D01*
X114666666Y-48850533D02*
X114619047Y-48993390D01*
X114619047Y-48993390D02*
X114047619Y-49564819D01*
X114047619Y-49564819D02*
X114666666Y-49564819D01*
X158735833Y-50284819D02*
X158402500Y-49808628D01*
X158164405Y-50284819D02*
X158164405Y-49284819D01*
X158164405Y-49284819D02*
X158545357Y-49284819D01*
X158545357Y-49284819D02*
X158640595Y-49332438D01*
X158640595Y-49332438D02*
X158688214Y-49380057D01*
X158688214Y-49380057D02*
X158735833Y-49475295D01*
X158735833Y-49475295D02*
X158735833Y-49618152D01*
X158735833Y-49618152D02*
X158688214Y-49713390D01*
X158688214Y-49713390D02*
X158640595Y-49761009D01*
X158640595Y-49761009D02*
X158545357Y-49808628D01*
X158545357Y-49808628D02*
X158164405Y-49808628D01*
X159592976Y-49618152D02*
X159592976Y-50284819D01*
X159354881Y-49237200D02*
X159116786Y-49951485D01*
X159116786Y-49951485D02*
X159735833Y-49951485D01*
X157609580Y-98034343D02*
X157657200Y-98081962D01*
X157657200Y-98081962D02*
X157704819Y-98224819D01*
X157704819Y-98224819D02*
X157704819Y-98320057D01*
X157704819Y-98320057D02*
X157657200Y-98462914D01*
X157657200Y-98462914D02*
X157561961Y-98558152D01*
X157561961Y-98558152D02*
X157466723Y-98605771D01*
X157466723Y-98605771D02*
X157276247Y-98653390D01*
X157276247Y-98653390D02*
X157133390Y-98653390D01*
X157133390Y-98653390D02*
X156942914Y-98605771D01*
X156942914Y-98605771D02*
X156847676Y-98558152D01*
X156847676Y-98558152D02*
X156752438Y-98462914D01*
X156752438Y-98462914D02*
X156704819Y-98320057D01*
X156704819Y-98320057D02*
X156704819Y-98224819D01*
X156704819Y-98224819D02*
X156752438Y-98081962D01*
X156752438Y-98081962D02*
X156800057Y-98034343D01*
X156704819Y-97129581D02*
X156704819Y-97605771D01*
X156704819Y-97605771D02*
X157181009Y-97653390D01*
X157181009Y-97653390D02*
X157133390Y-97605771D01*
X157133390Y-97605771D02*
X157085771Y-97510533D01*
X157085771Y-97510533D02*
X157085771Y-97272438D01*
X157085771Y-97272438D02*
X157133390Y-97177200D01*
X157133390Y-97177200D02*
X157181009Y-97129581D01*
X157181009Y-97129581D02*
X157276247Y-97081962D01*
X157276247Y-97081962D02*
X157514342Y-97081962D01*
X157514342Y-97081962D02*
X157609580Y-97129581D01*
X157609580Y-97129581D02*
X157657200Y-97177200D01*
X157657200Y-97177200D02*
X157704819Y-97272438D01*
X157704819Y-97272438D02*
X157704819Y-97510533D01*
X157704819Y-97510533D02*
X157657200Y-97605771D01*
X157657200Y-97605771D02*
X157609580Y-97653390D01*
X167869761Y-78550057D02*
X167774523Y-78502438D01*
X167774523Y-78502438D02*
X167679285Y-78407200D01*
X167679285Y-78407200D02*
X167536428Y-78264342D01*
X167536428Y-78264342D02*
X167441190Y-78216723D01*
X167441190Y-78216723D02*
X167345952Y-78216723D01*
X167393571Y-78454819D02*
X167298333Y-78407200D01*
X167298333Y-78407200D02*
X167203095Y-78311961D01*
X167203095Y-78311961D02*
X167155476Y-78121485D01*
X167155476Y-78121485D02*
X167155476Y-77788152D01*
X167155476Y-77788152D02*
X167203095Y-77597676D01*
X167203095Y-77597676D02*
X167298333Y-77502438D01*
X167298333Y-77502438D02*
X167393571Y-77454819D01*
X167393571Y-77454819D02*
X167584047Y-77454819D01*
X167584047Y-77454819D02*
X167679285Y-77502438D01*
X167679285Y-77502438D02*
X167774523Y-77597676D01*
X167774523Y-77597676D02*
X167822142Y-77788152D01*
X167822142Y-77788152D02*
X167822142Y-78121485D01*
X167822142Y-78121485D02*
X167774523Y-78311961D01*
X167774523Y-78311961D02*
X167679285Y-78407200D01*
X167679285Y-78407200D02*
X167584047Y-78454819D01*
X167584047Y-78454819D02*
X167393571Y-78454819D01*
X168155476Y-77454819D02*
X168774523Y-77454819D01*
X168774523Y-77454819D02*
X168441190Y-77835771D01*
X168441190Y-77835771D02*
X168584047Y-77835771D01*
X168584047Y-77835771D02*
X168679285Y-77883390D01*
X168679285Y-77883390D02*
X168726904Y-77931009D01*
X168726904Y-77931009D02*
X168774523Y-78026247D01*
X168774523Y-78026247D02*
X168774523Y-78264342D01*
X168774523Y-78264342D02*
X168726904Y-78359580D01*
X168726904Y-78359580D02*
X168679285Y-78407200D01*
X168679285Y-78407200D02*
X168584047Y-78454819D01*
X168584047Y-78454819D02*
X168298333Y-78454819D01*
X168298333Y-78454819D02*
X168203095Y-78407200D01*
X168203095Y-78407200D02*
X168155476Y-78359580D01*
X159369761Y-78000057D02*
X159274523Y-77952438D01*
X159274523Y-77952438D02*
X159179285Y-77857200D01*
X159179285Y-77857200D02*
X159036428Y-77714342D01*
X159036428Y-77714342D02*
X158941190Y-77666723D01*
X158941190Y-77666723D02*
X158845952Y-77666723D01*
X158893571Y-77904819D02*
X158798333Y-77857200D01*
X158798333Y-77857200D02*
X158703095Y-77761961D01*
X158703095Y-77761961D02*
X158655476Y-77571485D01*
X158655476Y-77571485D02*
X158655476Y-77238152D01*
X158655476Y-77238152D02*
X158703095Y-77047676D01*
X158703095Y-77047676D02*
X158798333Y-76952438D01*
X158798333Y-76952438D02*
X158893571Y-76904819D01*
X158893571Y-76904819D02*
X159084047Y-76904819D01*
X159084047Y-76904819D02*
X159179285Y-76952438D01*
X159179285Y-76952438D02*
X159274523Y-77047676D01*
X159274523Y-77047676D02*
X159322142Y-77238152D01*
X159322142Y-77238152D02*
X159322142Y-77571485D01*
X159322142Y-77571485D02*
X159274523Y-77761961D01*
X159274523Y-77761961D02*
X159179285Y-77857200D01*
X159179285Y-77857200D02*
X159084047Y-77904819D01*
X159084047Y-77904819D02*
X158893571Y-77904819D01*
X159703095Y-77000057D02*
X159750714Y-76952438D01*
X159750714Y-76952438D02*
X159845952Y-76904819D01*
X159845952Y-76904819D02*
X160084047Y-76904819D01*
X160084047Y-76904819D02*
X160179285Y-76952438D01*
X160179285Y-76952438D02*
X160226904Y-77000057D01*
X160226904Y-77000057D02*
X160274523Y-77095295D01*
X160274523Y-77095295D02*
X160274523Y-77190533D01*
X160274523Y-77190533D02*
X160226904Y-77333390D01*
X160226904Y-77333390D02*
X159655476Y-77904819D01*
X159655476Y-77904819D02*
X160274523Y-77904819D01*
X101550595Y-72839819D02*
X101550595Y-73649342D01*
X101550595Y-73649342D02*
X101598214Y-73744580D01*
X101598214Y-73744580D02*
X101645833Y-73792200D01*
X101645833Y-73792200D02*
X101741071Y-73839819D01*
X101741071Y-73839819D02*
X101931547Y-73839819D01*
X101931547Y-73839819D02*
X102026785Y-73792200D01*
X102026785Y-73792200D02*
X102074404Y-73744580D01*
X102074404Y-73744580D02*
X102122023Y-73649342D01*
X102122023Y-73649342D02*
X102122023Y-72839819D01*
X102502976Y-72839819D02*
X103122023Y-72839819D01*
X103122023Y-72839819D02*
X102788690Y-73220771D01*
X102788690Y-73220771D02*
X102931547Y-73220771D01*
X102931547Y-73220771D02*
X103026785Y-73268390D01*
X103026785Y-73268390D02*
X103074404Y-73316009D01*
X103074404Y-73316009D02*
X103122023Y-73411247D01*
X103122023Y-73411247D02*
X103122023Y-73649342D01*
X103122023Y-73649342D02*
X103074404Y-73744580D01*
X103074404Y-73744580D02*
X103026785Y-73792200D01*
X103026785Y-73792200D02*
X102931547Y-73839819D01*
X102931547Y-73839819D02*
X102645833Y-73839819D01*
X102645833Y-73839819D02*
X102550595Y-73792200D01*
X102550595Y-73792200D02*
X102502976Y-73744580D01*
X95033333Y-56659819D02*
X94700000Y-56183628D01*
X94461905Y-56659819D02*
X94461905Y-55659819D01*
X94461905Y-55659819D02*
X94842857Y-55659819D01*
X94842857Y-55659819D02*
X94938095Y-55707438D01*
X94938095Y-55707438D02*
X94985714Y-55755057D01*
X94985714Y-55755057D02*
X95033333Y-55850295D01*
X95033333Y-55850295D02*
X95033333Y-55993152D01*
X95033333Y-55993152D02*
X94985714Y-56088390D01*
X94985714Y-56088390D02*
X94938095Y-56136009D01*
X94938095Y-56136009D02*
X94842857Y-56183628D01*
X94842857Y-56183628D02*
X94461905Y-56183628D01*
X95366667Y-55659819D02*
X96033333Y-55659819D01*
X96033333Y-55659819D02*
X95604762Y-56659819D01*
X115864819Y-87071904D02*
X116674342Y-87071904D01*
X116674342Y-87071904D02*
X116769580Y-87024285D01*
X116769580Y-87024285D02*
X116817200Y-86976666D01*
X116817200Y-86976666D02*
X116864819Y-86881428D01*
X116864819Y-86881428D02*
X116864819Y-86690952D01*
X116864819Y-86690952D02*
X116817200Y-86595714D01*
X116817200Y-86595714D02*
X116769580Y-86548095D01*
X116769580Y-86548095D02*
X116674342Y-86500476D01*
X116674342Y-86500476D02*
X115864819Y-86500476D01*
X116198152Y-85595714D02*
X116864819Y-85595714D01*
X115817200Y-85833809D02*
X116531485Y-86071904D01*
X116531485Y-86071904D02*
X116531485Y-85452857D01*
X171256905Y-54494819D02*
X171256905Y-53494819D01*
X171256905Y-53494819D02*
X171495000Y-53494819D01*
X171495000Y-53494819D02*
X171637857Y-53542438D01*
X171637857Y-53542438D02*
X171733095Y-53637676D01*
X171733095Y-53637676D02*
X171780714Y-53732914D01*
X171780714Y-53732914D02*
X171828333Y-53923390D01*
X171828333Y-53923390D02*
X171828333Y-54066247D01*
X171828333Y-54066247D02*
X171780714Y-54256723D01*
X171780714Y-54256723D02*
X171733095Y-54351961D01*
X171733095Y-54351961D02*
X171637857Y-54447200D01*
X171637857Y-54447200D02*
X171495000Y-54494819D01*
X171495000Y-54494819D02*
X171256905Y-54494819D01*
X172685476Y-53828152D02*
X172685476Y-54494819D01*
X172447381Y-53447200D02*
X172209286Y-54161485D01*
X172209286Y-54161485D02*
X172828333Y-54161485D01*
X140204819Y-92686904D02*
X141014342Y-92686904D01*
X141014342Y-92686904D02*
X141109580Y-92639285D01*
X141109580Y-92639285D02*
X141157200Y-92591666D01*
X141157200Y-92591666D02*
X141204819Y-92496428D01*
X141204819Y-92496428D02*
X141204819Y-92305952D01*
X141204819Y-92305952D02*
X141157200Y-92210714D01*
X141157200Y-92210714D02*
X141109580Y-92163095D01*
X141109580Y-92163095D02*
X141014342Y-92115476D01*
X141014342Y-92115476D02*
X140204819Y-92115476D01*
X140300057Y-91686904D02*
X140252438Y-91639285D01*
X140252438Y-91639285D02*
X140204819Y-91544047D01*
X140204819Y-91544047D02*
X140204819Y-91305952D01*
X140204819Y-91305952D02*
X140252438Y-91210714D01*
X140252438Y-91210714D02*
X140300057Y-91163095D01*
X140300057Y-91163095D02*
X140395295Y-91115476D01*
X140395295Y-91115476D02*
X140490533Y-91115476D01*
X140490533Y-91115476D02*
X140633390Y-91163095D01*
X140633390Y-91163095D02*
X141204819Y-91734523D01*
X141204819Y-91734523D02*
X141204819Y-91115476D01*
X163756905Y-54494819D02*
X163756905Y-53494819D01*
X163756905Y-53494819D02*
X163995000Y-53494819D01*
X163995000Y-53494819D02*
X164137857Y-53542438D01*
X164137857Y-53542438D02*
X164233095Y-53637676D01*
X164233095Y-53637676D02*
X164280714Y-53732914D01*
X164280714Y-53732914D02*
X164328333Y-53923390D01*
X164328333Y-53923390D02*
X164328333Y-54066247D01*
X164328333Y-54066247D02*
X164280714Y-54256723D01*
X164280714Y-54256723D02*
X164233095Y-54351961D01*
X164233095Y-54351961D02*
X164137857Y-54447200D01*
X164137857Y-54447200D02*
X163995000Y-54494819D01*
X163995000Y-54494819D02*
X163756905Y-54494819D01*
X164661667Y-53494819D02*
X165280714Y-53494819D01*
X165280714Y-53494819D02*
X164947381Y-53875771D01*
X164947381Y-53875771D02*
X165090238Y-53875771D01*
X165090238Y-53875771D02*
X165185476Y-53923390D01*
X165185476Y-53923390D02*
X165233095Y-53971009D01*
X165233095Y-53971009D02*
X165280714Y-54066247D01*
X165280714Y-54066247D02*
X165280714Y-54304342D01*
X165280714Y-54304342D02*
X165233095Y-54399580D01*
X165233095Y-54399580D02*
X165185476Y-54447200D01*
X165185476Y-54447200D02*
X165090238Y-54494819D01*
X165090238Y-54494819D02*
X164804524Y-54494819D01*
X164804524Y-54494819D02*
X164709286Y-54447200D01*
X164709286Y-54447200D02*
X164661667Y-54399580D01*
X95444761Y-89780057D02*
X95349523Y-89732438D01*
X95349523Y-89732438D02*
X95254285Y-89637200D01*
X95254285Y-89637200D02*
X95111428Y-89494342D01*
X95111428Y-89494342D02*
X95016190Y-89446723D01*
X95016190Y-89446723D02*
X94920952Y-89446723D01*
X94968571Y-89684819D02*
X94873333Y-89637200D01*
X94873333Y-89637200D02*
X94778095Y-89541961D01*
X94778095Y-89541961D02*
X94730476Y-89351485D01*
X94730476Y-89351485D02*
X94730476Y-89018152D01*
X94730476Y-89018152D02*
X94778095Y-88827676D01*
X94778095Y-88827676D02*
X94873333Y-88732438D01*
X94873333Y-88732438D02*
X94968571Y-88684819D01*
X94968571Y-88684819D02*
X95159047Y-88684819D01*
X95159047Y-88684819D02*
X95254285Y-88732438D01*
X95254285Y-88732438D02*
X95349523Y-88827676D01*
X95349523Y-88827676D02*
X95397142Y-89018152D01*
X95397142Y-89018152D02*
X95397142Y-89351485D01*
X95397142Y-89351485D02*
X95349523Y-89541961D01*
X95349523Y-89541961D02*
X95254285Y-89637200D01*
X95254285Y-89637200D02*
X95159047Y-89684819D01*
X95159047Y-89684819D02*
X94968571Y-89684819D01*
X96254285Y-89018152D02*
X96254285Y-89684819D01*
X96016190Y-88637200D02*
X95778095Y-89351485D01*
X95778095Y-89351485D02*
X96397142Y-89351485D01*
X167654166Y-125194819D02*
X167654166Y-125909104D01*
X167654166Y-125909104D02*
X167606547Y-126051961D01*
X167606547Y-126051961D02*
X167511309Y-126147200D01*
X167511309Y-126147200D02*
X167368452Y-126194819D01*
X167368452Y-126194819D02*
X167273214Y-126194819D01*
X168035119Y-125194819D02*
X168654166Y-125194819D01*
X168654166Y-125194819D02*
X168320833Y-125575771D01*
X168320833Y-125575771D02*
X168463690Y-125575771D01*
X168463690Y-125575771D02*
X168558928Y-125623390D01*
X168558928Y-125623390D02*
X168606547Y-125671009D01*
X168606547Y-125671009D02*
X168654166Y-125766247D01*
X168654166Y-125766247D02*
X168654166Y-126004342D01*
X168654166Y-126004342D02*
X168606547Y-126099580D01*
X168606547Y-126099580D02*
X168558928Y-126147200D01*
X168558928Y-126147200D02*
X168463690Y-126194819D01*
X168463690Y-126194819D02*
X168177976Y-126194819D01*
X168177976Y-126194819D02*
X168082738Y-126147200D01*
X168082738Y-126147200D02*
X168035119Y-126099580D01*
D13*
%TO.C,R16*%
X93322936Y-80290000D02*
X97677064Y-80290000D01*
X93322936Y-83710000D02*
X97677064Y-83710000D01*
%TO.C,R1*%
X90372936Y-71290000D02*
X94727064Y-71290000D01*
X90372936Y-74710000D02*
X94727064Y-74710000D01*
%TO.C,C2*%
X119590000Y-52211252D02*
X119590000Y-50788748D01*
X121410000Y-52211252D02*
X121410000Y-50788748D01*
%TO.C,D2*%
X154435000Y-56455000D02*
X154435000Y-59545000D01*
X154435000Y-56455170D02*
G75*
G02*
X159985000Y-58000462I2560000J-1544830D01*
G01*
X159985000Y-57999538D02*
G75*
G02*
X154435000Y-59544830I-2990000J-462D01*
G01*
X159495000Y-58000000D02*
G75*
G02*
X154495000Y-58000000I-2500000J0D01*
G01*
X154495000Y-58000000D02*
G75*
G02*
X159495000Y-58000000I2500000J0D01*
G01*
%TO.C,R3*%
X147832379Y-52620000D02*
X148167621Y-52620000D01*
X147832379Y-53380000D02*
X148167621Y-53380000D01*
%TO.C,R15*%
X121570121Y-125380000D02*
X121234879Y-125380000D01*
X121570121Y-124620000D02*
X121234879Y-124620000D01*
%TO.C,J1*%
X99700000Y-136160000D02*
X99700000Y-136900000D01*
X99700000Y-136900000D02*
X100200000Y-136900000D01*
X99940000Y-126739000D02*
X99940000Y-136660000D01*
X99940000Y-126739000D02*
X110060000Y-126739000D01*
X99940000Y-129699000D02*
X110060000Y-129699000D01*
X99940000Y-134600000D02*
X110060000Y-134600000D01*
X99940000Y-136100000D02*
X110060000Y-136100000D01*
X99940000Y-136660000D02*
X110060000Y-136660000D01*
X106273000Y-133023000D02*
X106226000Y-133069000D01*
X106466000Y-133239000D02*
X106431000Y-133274000D01*
X108570000Y-130725000D02*
X108535000Y-130761000D01*
X108775000Y-130931000D02*
X108728000Y-130977000D01*
X110060000Y-126739000D02*
X110060000Y-136660000D01*
X100964573Y-132683042D02*
G75*
G02*
X100965000Y-131316000I1535420J683041D01*
G01*
X101816958Y-130464573D02*
G75*
G02*
X103184000Y-130465000I683041J-1535420D01*
G01*
X102528805Y-133680253D02*
G75*
G02*
X101816000Y-133535000I-28806J1680254D01*
G01*
X103183318Y-133534756D02*
G75*
G02*
X102500000Y-133680000I-683318J1534756D01*
G01*
X104035427Y-131316958D02*
G75*
G02*
X104035000Y-132684000I-1535427J-683042D01*
G01*
X109180000Y-132000000D02*
G75*
G02*
X105820000Y-132000000I-1680000J0D01*
G01*
X105820000Y-132000000D02*
G75*
G02*
X109180000Y-132000000I1680000J0D01*
G01*
%TO.C,U1*%
X124630000Y-42140000D02*
X124630000Y-48300000D01*
X124630000Y-42140000D02*
X142870000Y-42140000D01*
X124630000Y-67100000D02*
X124630000Y-67880000D01*
X124630000Y-67880000D02*
X125630000Y-67880000D01*
X142870000Y-42140000D02*
X142870000Y-48555000D01*
X142870000Y-67100000D02*
X142870000Y-67880000D01*
X142870000Y-67880000D02*
X141870000Y-67880000D01*
X124625000Y-49025000D02*
X124125000Y-49025000D01*
X124625000Y-48525000D01*
X124625000Y-49025000D01*
G36*
X124625000Y-49025000D02*
G01*
X124125000Y-49025000D01*
X124625000Y-48525000D01*
X124625000Y-49025000D01*
G37*
%TO.C,R8*%
X105765121Y-59620000D02*
X105429879Y-59620000D01*
X105765121Y-60380000D02*
X105429879Y-60380000D01*
%TO.C,C3*%
X104816665Y-49140000D02*
X105048335Y-49140000D01*
X104816665Y-49860000D02*
X105048335Y-49860000D01*
%TO.C,Q1*%
X149500000Y-56440000D02*
X148850000Y-56440000D01*
X149500000Y-56440000D02*
X150150000Y-56440000D01*
X149500000Y-59560000D02*
X148850000Y-59560000D01*
X149500000Y-59560000D02*
X150150000Y-59560000D01*
X148337500Y-56490000D02*
X148097500Y-56160000D01*
X148577500Y-56160000D01*
X148337500Y-56490000D01*
G36*
X148337500Y-56490000D02*
G01*
X148097500Y-56160000D01*
X148577500Y-56160000D01*
X148337500Y-56490000D01*
G37*
%TO.C,J5*%
X139670000Y-109670000D02*
X141000000Y-109670000D01*
X139670000Y-111000000D02*
X139670000Y-109670000D01*
X142270000Y-109670000D02*
X155030000Y-109670000D01*
X142270000Y-112330000D02*
X142270000Y-109670000D01*
X142270000Y-112330000D02*
X155030000Y-112330000D01*
X155030000Y-112330000D02*
X155030000Y-109670000D01*
%TO.C,L1*%
X175990000Y-98380000D02*
X172010000Y-98380000D01*
X175990000Y-102620000D02*
X172010000Y-102620000D01*
%TO.C,C4*%
X125420000Y-90420000D02*
X135580000Y-90420000D01*
X125420000Y-90460000D02*
X135580000Y-90460000D01*
X125420000Y-90500000D02*
X135580000Y-90500000D01*
X125421000Y-90380000D02*
X135579000Y-90380000D01*
X125422000Y-90340000D02*
X135578000Y-90340000D01*
X125423000Y-90300000D02*
X135577000Y-90300000D01*
X125425000Y-90260000D02*
X135575000Y-90260000D01*
X125427000Y-90220000D02*
X135573000Y-90220000D01*
X125430000Y-90180000D02*
X135570000Y-90180000D01*
X125432000Y-90140000D02*
X135568000Y-90140000D01*
X125435000Y-90100000D02*
X135565000Y-90100000D01*
X125438000Y-90060000D02*
X135562000Y-90060000D01*
X125442000Y-90020000D02*
X135558000Y-90020000D01*
X125446000Y-89980000D02*
X135554000Y-89980000D01*
X125450000Y-89940000D02*
X135550000Y-89940000D01*
X125455000Y-89900000D02*
X135545000Y-89900000D01*
X125460000Y-89860000D02*
X135540000Y-89860000D01*
X125465000Y-89820000D02*
X135535000Y-89820000D01*
X125470000Y-89779000D02*
X135530000Y-89779000D01*
X125476000Y-89739000D02*
X135524000Y-89739000D01*
X125482000Y-89699000D02*
X135518000Y-89699000D01*
X125489000Y-89659000D02*
X135511000Y-89659000D01*
X125496000Y-89619000D02*
X135504000Y-89619000D01*
X125503000Y-89579000D02*
X135497000Y-89579000D01*
X125510000Y-89539000D02*
X135490000Y-89539000D01*
X125518000Y-89499000D02*
X135482000Y-89499000D01*
X125526000Y-89459000D02*
X135474000Y-89459000D01*
X125535000Y-89419000D02*
X135465000Y-89419000D01*
X125544000Y-89379000D02*
X135456000Y-89379000D01*
X125553000Y-89339000D02*
X135447000Y-89339000D01*
X125562000Y-89299000D02*
X135438000Y-89299000D01*
X125572000Y-89259000D02*
X135428000Y-89259000D01*
X125582000Y-89219000D02*
X129259000Y-89219000D01*
X125593000Y-89179000D02*
X129259000Y-89179000D01*
X125603000Y-89139000D02*
X129259000Y-89139000D01*
X125615000Y-89099000D02*
X129259000Y-89099000D01*
X125626000Y-89059000D02*
X129259000Y-89059000D01*
X125638000Y-89019000D02*
X129259000Y-89019000D01*
X125650000Y-88979000D02*
X129259000Y-88979000D01*
X125663000Y-88939000D02*
X129259000Y-88939000D01*
X125676000Y-88899000D02*
X129259000Y-88899000D01*
X125689000Y-88859000D02*
X129259000Y-88859000D01*
X125703000Y-88819000D02*
X129259000Y-88819000D01*
X125717000Y-88779000D02*
X129259000Y-88779000D01*
X125732000Y-88739000D02*
X129259000Y-88739000D01*
X125746000Y-88699000D02*
X129259000Y-88699000D01*
X125762000Y-88659000D02*
X129259000Y-88659000D01*
X125777000Y-88619000D02*
X129259000Y-88619000D01*
X125793000Y-88579000D02*
X129259000Y-88579000D01*
X125810000Y-88539000D02*
X129259000Y-88539000D01*
X125826000Y-88499000D02*
X129259000Y-88499000D01*
X125843000Y-88459000D02*
X129259000Y-88459000D01*
X125861000Y-88419000D02*
X129259000Y-88419000D01*
X125879000Y-88379000D02*
X129259000Y-88379000D01*
X125897000Y-88339000D02*
X129259000Y-88339000D01*
X125916000Y-88299000D02*
X129259000Y-88299000D01*
X125936000Y-88259000D02*
X129259000Y-88259000D01*
X125955000Y-88219000D02*
X129259000Y-88219000D01*
X125975000Y-88179000D02*
X129259000Y-88179000D01*
X125996000Y-88139000D02*
X129259000Y-88139000D01*
X126017000Y-88099000D02*
X129259000Y-88099000D01*
X126038000Y-88059000D02*
X129259000Y-88059000D01*
X126060000Y-88019000D02*
X129259000Y-88019000D01*
X126083000Y-87979000D02*
X129259000Y-87979000D01*
X126105000Y-87939000D02*
X129259000Y-87939000D01*
X126129000Y-87899000D02*
X129259000Y-87899000D01*
X126153000Y-87859000D02*
X129259000Y-87859000D01*
X126177000Y-87819000D02*
X129259000Y-87819000D01*
X126202000Y-87779000D02*
X129259000Y-87779000D01*
X126227000Y-87739000D02*
X129259000Y-87739000D01*
X126253000Y-87699000D02*
X129259000Y-87699000D01*
X126279000Y-87659000D02*
X129259000Y-87659000D01*
X126306000Y-87619000D02*
X129259000Y-87619000D01*
X126334000Y-87579000D02*
X129259000Y-87579000D01*
X126362000Y-87539000D02*
X129259000Y-87539000D01*
X126390000Y-87499000D02*
X129259000Y-87499000D01*
X126420000Y-87459000D02*
X129259000Y-87459000D01*
X126450000Y-87419000D02*
X129259000Y-87419000D01*
X126480000Y-87379000D02*
X129259000Y-87379000D01*
X126511000Y-87339000D02*
X129259000Y-87339000D01*
X126543000Y-87299000D02*
X129259000Y-87299000D01*
X126575000Y-87259000D02*
X129259000Y-87259000D01*
X126608000Y-87219000D02*
X129259000Y-87219000D01*
X126642000Y-87179000D02*
X129259000Y-87179000D01*
X126676000Y-87139000D02*
X129259000Y-87139000D01*
X126711000Y-87099000D02*
X129259000Y-87099000D01*
X126747000Y-87059000D02*
X129259000Y-87059000D01*
X126784000Y-87019000D02*
X129259000Y-87019000D01*
X126821000Y-86979000D02*
X129259000Y-86979000D01*
X126860000Y-86939000D02*
X129259000Y-86939000D01*
X126899000Y-86899000D02*
X129259000Y-86899000D01*
X126939000Y-86859000D02*
X129259000Y-86859000D01*
X126980000Y-86819000D02*
X129259000Y-86819000D01*
X127022000Y-86779000D02*
X129259000Y-86779000D01*
X127064000Y-86739000D02*
X133936000Y-86739000D01*
X127108000Y-86699000D02*
X133892000Y-86699000D01*
X127125000Y-95479646D02*
X128125000Y-95479646D01*
X127153000Y-86659000D02*
X133847000Y-86659000D01*
X127199000Y-86619000D02*
X133801000Y-86619000D01*
X127246000Y-86579000D02*
X133754000Y-86579000D01*
X127294000Y-86539000D02*
X133706000Y-86539000D01*
X127344000Y-86499000D02*
X133656000Y-86499000D01*
X127394000Y-86459000D02*
X133606000Y-86459000D01*
X127446000Y-86419000D02*
X133554000Y-86419000D01*
X127500000Y-86379000D02*
X133500000Y-86379000D01*
X127555000Y-86339000D02*
X133445000Y-86339000D01*
X127611000Y-86299000D02*
X133389000Y-86299000D01*
X127625000Y-95979646D02*
X127625000Y-94979646D01*
X127670000Y-86259000D02*
X133330000Y-86259000D01*
X127730000Y-86219000D02*
X133270000Y-86219000D01*
X127791000Y-86179000D02*
X133209000Y-86179000D01*
X127855000Y-86139000D02*
X133145000Y-86139000D01*
X127921000Y-86099000D02*
X133079000Y-86099000D01*
X127990000Y-86059000D02*
X133010000Y-86059000D01*
X128061000Y-86019000D02*
X132939000Y-86019000D01*
X128135000Y-85979000D02*
X132865000Y-85979000D01*
X128211000Y-85939000D02*
X132789000Y-85939000D01*
X128291000Y-85899000D02*
X132709000Y-85899000D01*
X128375000Y-85859000D02*
X132625000Y-85859000D01*
X128463000Y-85819000D02*
X132537000Y-85819000D01*
X128556000Y-85779000D02*
X132444000Y-85779000D01*
X128654000Y-85739000D02*
X132346000Y-85739000D01*
X128758000Y-85699000D02*
X132242000Y-85699000D01*
X128870000Y-85659000D02*
X132130000Y-85659000D01*
X128990000Y-85619000D02*
X132010000Y-85619000D01*
X129122000Y-85579000D02*
X131878000Y-85579000D01*
X129270000Y-85539000D02*
X131730000Y-85539000D01*
X129438000Y-85499000D02*
X131562000Y-85499000D01*
X129638000Y-85459000D02*
X131362000Y-85459000D01*
X129901000Y-85419000D02*
X131099000Y-85419000D01*
X131741000Y-86779000D02*
X133978000Y-86779000D01*
X131741000Y-86819000D02*
X134020000Y-86819000D01*
X131741000Y-86859000D02*
X134061000Y-86859000D01*
X131741000Y-86899000D02*
X134101000Y-86899000D01*
X131741000Y-86939000D02*
X134140000Y-86939000D01*
X131741000Y-86979000D02*
X134179000Y-86979000D01*
X131741000Y-87019000D02*
X134216000Y-87019000D01*
X131741000Y-87059000D02*
X134253000Y-87059000D01*
X131741000Y-87099000D02*
X134289000Y-87099000D01*
X131741000Y-87139000D02*
X134324000Y-87139000D01*
X131741000Y-87179000D02*
X134358000Y-87179000D01*
X131741000Y-87219000D02*
X134392000Y-87219000D01*
X131741000Y-87259000D02*
X134425000Y-87259000D01*
X131741000Y-87299000D02*
X134457000Y-87299000D01*
X131741000Y-87339000D02*
X134489000Y-87339000D01*
X131741000Y-87379000D02*
X134520000Y-87379000D01*
X131741000Y-87419000D02*
X134550000Y-87419000D01*
X131741000Y-87459000D02*
X134580000Y-87459000D01*
X131741000Y-87499000D02*
X134610000Y-87499000D01*
X131741000Y-87539000D02*
X134638000Y-87539000D01*
X131741000Y-87579000D02*
X134666000Y-87579000D01*
X131741000Y-87619000D02*
X134694000Y-87619000D01*
X131741000Y-87659000D02*
X134721000Y-87659000D01*
X131741000Y-87699000D02*
X134747000Y-87699000D01*
X131741000Y-87739000D02*
X134773000Y-87739000D01*
X131741000Y-87779000D02*
X134798000Y-87779000D01*
X131741000Y-87819000D02*
X134823000Y-87819000D01*
X131741000Y-87859000D02*
X134847000Y-87859000D01*
X131741000Y-87899000D02*
X134871000Y-87899000D01*
X131741000Y-87939000D02*
X134895000Y-87939000D01*
X131741000Y-87979000D02*
X134917000Y-87979000D01*
X131741000Y-88019000D02*
X134940000Y-88019000D01*
X131741000Y-88059000D02*
X134962000Y-88059000D01*
X131741000Y-88099000D02*
X134983000Y-88099000D01*
X131741000Y-88139000D02*
X135004000Y-88139000D01*
X131741000Y-88179000D02*
X135025000Y-88179000D01*
X131741000Y-88219000D02*
X135045000Y-88219000D01*
X131741000Y-88259000D02*
X135064000Y-88259000D01*
X131741000Y-88299000D02*
X135084000Y-88299000D01*
X131741000Y-88339000D02*
X135103000Y-88339000D01*
X131741000Y-88379000D02*
X135121000Y-88379000D01*
X131741000Y-88419000D02*
X135139000Y-88419000D01*
X131741000Y-88459000D02*
X135157000Y-88459000D01*
X131741000Y-88499000D02*
X135174000Y-88499000D01*
X131741000Y-88539000D02*
X135190000Y-88539000D01*
X131741000Y-88579000D02*
X135207000Y-88579000D01*
X131741000Y-88619000D02*
X135223000Y-88619000D01*
X131741000Y-88659000D02*
X135238000Y-88659000D01*
X131741000Y-88699000D02*
X135254000Y-88699000D01*
X131741000Y-88739000D02*
X135268000Y-88739000D01*
X131741000Y-88779000D02*
X135283000Y-88779000D01*
X131741000Y-88819000D02*
X135297000Y-88819000D01*
X131741000Y-88859000D02*
X135311000Y-88859000D01*
X131741000Y-88899000D02*
X135324000Y-88899000D01*
X131741000Y-88939000D02*
X135337000Y-88939000D01*
X131741000Y-88979000D02*
X135350000Y-88979000D01*
X131741000Y-89019000D02*
X135362000Y-89019000D01*
X131741000Y-89059000D02*
X135374000Y-89059000D01*
X131741000Y-89099000D02*
X135385000Y-89099000D01*
X131741000Y-89139000D02*
X135397000Y-89139000D01*
X131741000Y-89179000D02*
X135407000Y-89179000D01*
X131741000Y-89219000D02*
X135418000Y-89219000D01*
X135620000Y-90500000D02*
G75*
G02*
X125380000Y-90500000I-5120000J0D01*
G01*
X125380000Y-90500000D02*
G75*
G02*
X135620000Y-90500000I5120000J0D01*
G01*
%TO.C,R11*%
X155332379Y-67120000D02*
X155667621Y-67120000D01*
X155332379Y-67880000D02*
X155667621Y-67880000D01*
%TO.C,F1*%
X177910436Y-122590000D02*
X179114564Y-122590000D01*
X177910436Y-124410000D02*
X179114564Y-124410000D01*
%TO.C,D5*%
X161100000Y-88500000D02*
X162010000Y-88500000D01*
X162010000Y-85780000D02*
X162010000Y-91220000D01*
X162010000Y-91220000D02*
X171750000Y-91220000D01*
X170085000Y-91220000D02*
X170085000Y-85780000D01*
X170205000Y-91220000D02*
X170205000Y-85780000D01*
X170325000Y-91220000D02*
X170325000Y-85780000D01*
X171750000Y-85780000D02*
X162010000Y-85780000D01*
X171750000Y-91220000D02*
X171750000Y-85780000D01*
X172660000Y-88500000D02*
X171750000Y-88500000D01*
%TO.C,R9*%
X105765121Y-55620000D02*
X105429879Y-55620000D01*
X105765121Y-56380000D02*
X105429879Y-56380000D01*
%TO.C,R14*%
X103667621Y-93120000D02*
X103332379Y-93120000D01*
X103667621Y-93880000D02*
X103332379Y-93880000D01*
%TO.C,R2*%
X110390121Y-74620000D02*
X110054879Y-74620000D01*
X110390121Y-75380000D02*
X110054879Y-75380000D01*
%TO.C,R12*%
X159332379Y-67120000D02*
X159667621Y-67120000D01*
X159332379Y-67880000D02*
X159667621Y-67880000D01*
%TO.C,C6*%
X117384165Y-125360000D02*
X117615835Y-125360000D01*
X117384165Y-124640000D02*
X117615835Y-124640000D01*
%TO.C,R13*%
X116265121Y-77620000D02*
X115929879Y-77620000D01*
X116265121Y-78380000D02*
X115929879Y-78380000D01*
%TO.C,D1*%
X97550000Y-56690000D02*
X102350000Y-56690000D01*
X97550000Y-57500000D02*
X97550000Y-56690000D01*
X97750000Y-59710000D02*
X102350000Y-59710000D01*
%TO.C,R6*%
X173734879Y-50620000D02*
X174070121Y-50620000D01*
X173734879Y-51380000D02*
X174070121Y-51380000D01*
%TO.C,R5*%
X166234879Y-50620000D02*
X166570121Y-50620000D01*
X166234879Y-51380000D02*
X166570121Y-51380000D01*
%TO.C,R10*%
X99332379Y-49120000D02*
X99667621Y-49120000D01*
X99332379Y-49880000D02*
X99667621Y-49880000D01*
%TO.C,C1*%
X122640000Y-50615835D02*
X122640000Y-50384165D01*
X123360000Y-50615835D02*
X123360000Y-50384165D01*
%TO.C,J4*%
X123680000Y-132000000D02*
G75*
G02*
X120320000Y-132000000I-1680000J0D01*
G01*
X120320000Y-132000000D02*
G75*
G02*
X123680000Y-132000000I1680000J0D01*
G01*
X118535427Y-131316958D02*
G75*
G02*
X118535000Y-132684000I-1535427J-683042D01*
G01*
X117683318Y-133534756D02*
G75*
G02*
X117000000Y-133680000I-683318J1534756D01*
G01*
X117028805Y-133680253D02*
G75*
G02*
X116316000Y-133535000I-28806J1680254D01*
G01*
X116316958Y-130464573D02*
G75*
G02*
X117684000Y-130465000I683041J-1535420D01*
G01*
X115464573Y-132683042D02*
G75*
G02*
X115465000Y-131316000I1535420J683041D01*
G01*
X124560000Y-126739000D02*
X124560000Y-136660000D01*
X123275000Y-130931000D02*
X123228000Y-130977000D01*
X123070000Y-130725000D02*
X123035000Y-130761000D01*
X120966000Y-133239000D02*
X120931000Y-133274000D01*
X120773000Y-133023000D02*
X120726000Y-133069000D01*
X114440000Y-136660000D02*
X124560000Y-136660000D01*
X114440000Y-136100000D02*
X124560000Y-136100000D01*
X114440000Y-134600000D02*
X124560000Y-134600000D01*
X114440000Y-129699000D02*
X124560000Y-129699000D01*
X114440000Y-126739000D02*
X124560000Y-126739000D01*
X114440000Y-126739000D02*
X114440000Y-136660000D01*
X114200000Y-136900000D02*
X114700000Y-136900000D01*
X114200000Y-136160000D02*
X114200000Y-136900000D01*
%TO.C,J2*%
X112670000Y-53150000D02*
X112670000Y-65910000D01*
X112670000Y-53150000D02*
X115330000Y-53150000D01*
X112670000Y-65910000D02*
X115330000Y-65910000D01*
X114000000Y-50550000D02*
X115330000Y-50550000D01*
X115330000Y-50550000D02*
X115330000Y-51880000D01*
X115330000Y-53150000D02*
X115330000Y-65910000D01*
%TO.C,R4*%
X158734879Y-50620000D02*
X159070121Y-50620000D01*
X158734879Y-51380000D02*
X159070121Y-51380000D01*
%TO.C,C5*%
X158420000Y-97787677D02*
X168580000Y-97787677D01*
X158420000Y-97827677D02*
X168580000Y-97827677D01*
X158420000Y-97867677D02*
X168580000Y-97867677D01*
X158421000Y-97747677D02*
X168579000Y-97747677D01*
X158422000Y-97707677D02*
X168578000Y-97707677D01*
X158423000Y-97667677D02*
X168577000Y-97667677D01*
X158425000Y-97627677D02*
X168575000Y-97627677D01*
X158427000Y-97587677D02*
X168573000Y-97587677D01*
X158430000Y-97547677D02*
X168570000Y-97547677D01*
X158432000Y-97507677D02*
X168568000Y-97507677D01*
X158435000Y-97467677D02*
X168565000Y-97467677D01*
X158438000Y-97427677D02*
X168562000Y-97427677D01*
X158442000Y-97387677D02*
X168558000Y-97387677D01*
X158446000Y-97347677D02*
X168554000Y-97347677D01*
X158450000Y-97307677D02*
X168550000Y-97307677D01*
X158455000Y-97267677D02*
X168545000Y-97267677D01*
X158460000Y-97227677D02*
X168540000Y-97227677D01*
X158465000Y-97187677D02*
X168535000Y-97187677D01*
X158470000Y-97146677D02*
X168530000Y-97146677D01*
X158476000Y-97106677D02*
X168524000Y-97106677D01*
X158482000Y-97066677D02*
X168518000Y-97066677D01*
X158489000Y-97026677D02*
X168511000Y-97026677D01*
X158496000Y-96986677D02*
X168504000Y-96986677D01*
X158503000Y-96946677D02*
X168497000Y-96946677D01*
X158510000Y-96906677D02*
X168490000Y-96906677D01*
X158518000Y-96866677D02*
X168482000Y-96866677D01*
X158526000Y-96826677D02*
X168474000Y-96826677D01*
X158535000Y-96786677D02*
X168465000Y-96786677D01*
X158544000Y-96746677D02*
X168456000Y-96746677D01*
X158553000Y-96706677D02*
X168447000Y-96706677D01*
X158562000Y-96666677D02*
X168438000Y-96666677D01*
X158572000Y-96626677D02*
X168428000Y-96626677D01*
X158582000Y-96586677D02*
X162259000Y-96586677D01*
X158593000Y-96546677D02*
X162259000Y-96546677D01*
X158603000Y-96506677D02*
X162259000Y-96506677D01*
X158615000Y-96466677D02*
X162259000Y-96466677D01*
X158626000Y-96426677D02*
X162259000Y-96426677D01*
X158638000Y-96386677D02*
X162259000Y-96386677D01*
X158650000Y-96346677D02*
X162259000Y-96346677D01*
X158663000Y-96306677D02*
X162259000Y-96306677D01*
X158676000Y-96266677D02*
X162259000Y-96266677D01*
X158689000Y-96226677D02*
X162259000Y-96226677D01*
X158703000Y-96186677D02*
X162259000Y-96186677D01*
X158717000Y-96146677D02*
X162259000Y-96146677D01*
X158732000Y-96106677D02*
X162259000Y-96106677D01*
X158746000Y-96066677D02*
X162259000Y-96066677D01*
X158762000Y-96026677D02*
X162259000Y-96026677D01*
X158777000Y-95986677D02*
X162259000Y-95986677D01*
X158793000Y-95946677D02*
X162259000Y-95946677D01*
X158810000Y-95906677D02*
X162259000Y-95906677D01*
X158826000Y-95866677D02*
X162259000Y-95866677D01*
X158843000Y-95826677D02*
X162259000Y-95826677D01*
X158861000Y-95786677D02*
X162259000Y-95786677D01*
X158879000Y-95746677D02*
X162259000Y-95746677D01*
X158897000Y-95706677D02*
X162259000Y-95706677D01*
X158916000Y-95666677D02*
X162259000Y-95666677D01*
X158936000Y-95626677D02*
X162259000Y-95626677D01*
X158955000Y-95586677D02*
X162259000Y-95586677D01*
X158975000Y-95546677D02*
X162259000Y-95546677D01*
X158996000Y-95506677D02*
X162259000Y-95506677D01*
X159017000Y-95466677D02*
X162259000Y-95466677D01*
X159038000Y-95426677D02*
X162259000Y-95426677D01*
X159060000Y-95386677D02*
X162259000Y-95386677D01*
X159083000Y-95346677D02*
X162259000Y-95346677D01*
X159105000Y-95306677D02*
X162259000Y-95306677D01*
X159129000Y-95266677D02*
X162259000Y-95266677D01*
X159153000Y-95226677D02*
X162259000Y-95226677D01*
X159177000Y-95186677D02*
X162259000Y-95186677D01*
X159202000Y-95146677D02*
X162259000Y-95146677D01*
X159227000Y-95106677D02*
X162259000Y-95106677D01*
X159253000Y-95066677D02*
X162259000Y-95066677D01*
X159279000Y-95026677D02*
X162259000Y-95026677D01*
X159306000Y-94986677D02*
X162259000Y-94986677D01*
X159334000Y-94946677D02*
X162259000Y-94946677D01*
X159362000Y-94906677D02*
X162259000Y-94906677D01*
X159390000Y-94866677D02*
X162259000Y-94866677D01*
X159420000Y-94826677D02*
X162259000Y-94826677D01*
X159450000Y-94786677D02*
X162259000Y-94786677D01*
X159480000Y-94746677D02*
X162259000Y-94746677D01*
X159511000Y-94706677D02*
X162259000Y-94706677D01*
X159543000Y-94666677D02*
X162259000Y-94666677D01*
X159575000Y-94626677D02*
X162259000Y-94626677D01*
X159608000Y-94586677D02*
X162259000Y-94586677D01*
X159642000Y-94546677D02*
X162259000Y-94546677D01*
X159676000Y-94506677D02*
X162259000Y-94506677D01*
X159711000Y-94466677D02*
X162259000Y-94466677D01*
X159747000Y-94426677D02*
X162259000Y-94426677D01*
X159784000Y-94386677D02*
X162259000Y-94386677D01*
X159821000Y-94346677D02*
X162259000Y-94346677D01*
X159860000Y-94306677D02*
X162259000Y-94306677D01*
X159899000Y-94266677D02*
X162259000Y-94266677D01*
X159939000Y-94226677D02*
X162259000Y-94226677D01*
X159980000Y-94186677D02*
X162259000Y-94186677D01*
X160022000Y-94146677D02*
X162259000Y-94146677D01*
X160064000Y-94106677D02*
X166936000Y-94106677D01*
X160108000Y-94066677D02*
X166892000Y-94066677D01*
X160125000Y-102847323D02*
X161125000Y-102847323D01*
X160153000Y-94026677D02*
X166847000Y-94026677D01*
X160199000Y-93986677D02*
X166801000Y-93986677D01*
X160246000Y-93946677D02*
X166754000Y-93946677D01*
X160294000Y-93906677D02*
X166706000Y-93906677D01*
X160344000Y-93866677D02*
X166656000Y-93866677D01*
X160394000Y-93826677D02*
X166606000Y-93826677D01*
X160446000Y-93786677D02*
X166554000Y-93786677D01*
X160500000Y-93746677D02*
X166500000Y-93746677D01*
X160555000Y-93706677D02*
X166445000Y-93706677D01*
X160611000Y-93666677D02*
X166389000Y-93666677D01*
X160625000Y-103347323D02*
X160625000Y-102347323D01*
X160670000Y-93626677D02*
X166330000Y-93626677D01*
X160730000Y-93586677D02*
X166270000Y-93586677D01*
X160791000Y-93546677D02*
X166209000Y-93546677D01*
X160855000Y-93506677D02*
X166145000Y-93506677D01*
X160921000Y-93466677D02*
X166079000Y-93466677D01*
X160990000Y-93426677D02*
X166010000Y-93426677D01*
X161061000Y-93386677D02*
X165939000Y-93386677D01*
X161135000Y-93346677D02*
X165865000Y-93346677D01*
X161211000Y-93306677D02*
X165789000Y-93306677D01*
X161291000Y-93266677D02*
X165709000Y-93266677D01*
X161375000Y-93226677D02*
X165625000Y-93226677D01*
X161463000Y-93186677D02*
X165537000Y-93186677D01*
X161556000Y-93146677D02*
X165444000Y-93146677D01*
X161654000Y-93106677D02*
X165346000Y-93106677D01*
X161758000Y-93066677D02*
X165242000Y-93066677D01*
X161870000Y-93026677D02*
X165130000Y-93026677D01*
X161990000Y-92986677D02*
X165010000Y-92986677D01*
X162122000Y-92946677D02*
X164878000Y-92946677D01*
X162270000Y-92906677D02*
X164730000Y-92906677D01*
X162438000Y-92866677D02*
X164562000Y-92866677D01*
X162638000Y-92826677D02*
X164362000Y-92826677D01*
X162901000Y-92786677D02*
X164099000Y-92786677D01*
X164741000Y-94146677D02*
X166978000Y-94146677D01*
X164741000Y-94186677D02*
X167020000Y-94186677D01*
X164741000Y-94226677D02*
X167061000Y-94226677D01*
X164741000Y-94266677D02*
X167101000Y-94266677D01*
X164741000Y-94306677D02*
X167140000Y-94306677D01*
X164741000Y-94346677D02*
X167179000Y-94346677D01*
X164741000Y-94386677D02*
X167216000Y-94386677D01*
X164741000Y-94426677D02*
X167253000Y-94426677D01*
X164741000Y-94466677D02*
X167289000Y-94466677D01*
X164741000Y-94506677D02*
X167324000Y-94506677D01*
X164741000Y-94546677D02*
X167358000Y-94546677D01*
X164741000Y-94586677D02*
X167392000Y-94586677D01*
X164741000Y-94626677D02*
X167425000Y-94626677D01*
X164741000Y-94666677D02*
X167457000Y-94666677D01*
X164741000Y-94706677D02*
X167489000Y-94706677D01*
X164741000Y-94746677D02*
X167520000Y-94746677D01*
X164741000Y-94786677D02*
X167550000Y-94786677D01*
X164741000Y-94826677D02*
X167580000Y-94826677D01*
X164741000Y-94866677D02*
X167610000Y-94866677D01*
X164741000Y-94906677D02*
X167638000Y-94906677D01*
X164741000Y-94946677D02*
X167666000Y-94946677D01*
X164741000Y-94986677D02*
X167694000Y-94986677D01*
X164741000Y-95026677D02*
X167721000Y-95026677D01*
X164741000Y-95066677D02*
X167747000Y-95066677D01*
X164741000Y-95106677D02*
X167773000Y-95106677D01*
X164741000Y-95146677D02*
X167798000Y-95146677D01*
X164741000Y-95186677D02*
X167823000Y-95186677D01*
X164741000Y-95226677D02*
X167847000Y-95226677D01*
X164741000Y-95266677D02*
X167871000Y-95266677D01*
X164741000Y-95306677D02*
X167895000Y-95306677D01*
X164741000Y-95346677D02*
X167917000Y-95346677D01*
X164741000Y-95386677D02*
X167940000Y-95386677D01*
X164741000Y-95426677D02*
X167962000Y-95426677D01*
X164741000Y-95466677D02*
X167983000Y-95466677D01*
X164741000Y-95506677D02*
X168004000Y-95506677D01*
X164741000Y-95546677D02*
X168025000Y-95546677D01*
X164741000Y-95586677D02*
X168045000Y-95586677D01*
X164741000Y-95626677D02*
X168064000Y-95626677D01*
X164741000Y-95666677D02*
X168084000Y-95666677D01*
X164741000Y-95706677D02*
X168103000Y-95706677D01*
X164741000Y-95746677D02*
X168121000Y-95746677D01*
X164741000Y-95786677D02*
X168139000Y-95786677D01*
X164741000Y-95826677D02*
X168157000Y-95826677D01*
X164741000Y-95866677D02*
X168174000Y-95866677D01*
X164741000Y-95906677D02*
X168190000Y-95906677D01*
X164741000Y-95946677D02*
X168207000Y-95946677D01*
X164741000Y-95986677D02*
X168223000Y-95986677D01*
X164741000Y-96026677D02*
X168238000Y-96026677D01*
X164741000Y-96066677D02*
X168254000Y-96066677D01*
X164741000Y-96106677D02*
X168268000Y-96106677D01*
X164741000Y-96146677D02*
X168283000Y-96146677D01*
X164741000Y-96186677D02*
X168297000Y-96186677D01*
X164741000Y-96226677D02*
X168311000Y-96226677D01*
X164741000Y-96266677D02*
X168324000Y-96266677D01*
X164741000Y-96306677D02*
X168337000Y-96306677D01*
X164741000Y-96346677D02*
X168350000Y-96346677D01*
X164741000Y-96386677D02*
X168362000Y-96386677D01*
X164741000Y-96426677D02*
X168374000Y-96426677D01*
X164741000Y-96466677D02*
X168385000Y-96466677D01*
X164741000Y-96506677D02*
X168397000Y-96506677D01*
X164741000Y-96546677D02*
X168407000Y-96546677D01*
X164741000Y-96586677D02*
X168418000Y-96586677D01*
X168620000Y-97867677D02*
G75*
G02*
X158380000Y-97867677I-5120000J0D01*
G01*
X158380000Y-97867677D02*
G75*
G02*
X168620000Y-97867677I5120000J0D01*
G01*
%TO.C,Q3*%
X167965000Y-73440000D02*
X167315000Y-73440000D01*
X167965000Y-73440000D02*
X168615000Y-73440000D01*
X167965000Y-76560000D02*
X167315000Y-76560000D01*
X167965000Y-76560000D02*
X168615000Y-76560000D01*
X169367500Y-76840000D02*
X168887500Y-76840000D01*
X169127500Y-76510000D01*
X169367500Y-76840000D01*
G36*
X169367500Y-76840000D02*
G01*
X168887500Y-76840000D01*
X169127500Y-76510000D01*
X169367500Y-76840000D01*
G37*
%TO.C,Q2*%
X159465000Y-73490000D02*
X158815000Y-73490000D01*
X159465000Y-73490000D02*
X160115000Y-73490000D01*
X159465000Y-76610000D02*
X158815000Y-76610000D01*
X159465000Y-76610000D02*
X160115000Y-76610000D01*
X160867500Y-76890000D02*
X160387500Y-76890000D01*
X160627500Y-76560000D01*
X160867500Y-76890000D01*
G36*
X160867500Y-76890000D02*
G01*
X160387500Y-76890000D01*
X160627500Y-76560000D01*
X160867500Y-76890000D01*
G37*
%TO.C,U3*%
X100002500Y-74225000D02*
X100002500Y-74440000D01*
X100002500Y-77045000D02*
X100002500Y-76830000D01*
X102312500Y-74225000D02*
X100002500Y-74225000D01*
X102312500Y-74225000D02*
X104622500Y-74225000D01*
X102312500Y-77045000D02*
X100002500Y-77045000D01*
X102312500Y-77045000D02*
X104622500Y-77045000D01*
X104622500Y-74225000D02*
X104622500Y-74440000D01*
X104622500Y-77045000D02*
X104622500Y-76830000D01*
X99212500Y-74440000D02*
X98972500Y-74110000D01*
X99452500Y-74110000D01*
X99212500Y-74440000D01*
G36*
X99212500Y-74440000D02*
G01*
X98972500Y-74110000D01*
X99452500Y-74110000D01*
X99212500Y-74440000D01*
G37*
%TO.C,PS1*%
X134042500Y-97700000D02*
X134042500Y-123300000D01*
X88142500Y-123300000D02*
X134042500Y-123300000D01*
X88142500Y-97700000D02*
X134042500Y-97700000D01*
X88142500Y-97700000D02*
X88142500Y-123300000D01*
X87842500Y-108000000D02*
X87842500Y-110000000D01*
%TO.C,R7*%
X95032379Y-56995000D02*
X95367621Y-56995000D01*
X95032379Y-57755000D02*
X95367621Y-57755000D01*
%TO.C,U4*%
X107670000Y-83660000D02*
X107670000Y-88960000D01*
X107670000Y-88960000D02*
X115410000Y-88960000D01*
X115410000Y-83660000D02*
X107670000Y-83660000D01*
X115410000Y-85310000D02*
X115410000Y-83660000D01*
X115410000Y-88960000D02*
X115410000Y-87310000D01*
X115410000Y-87310000D02*
G75*
G02*
X115410000Y-85310000I0J1000000D01*
G01*
%TO.C,D4*%
X169435000Y-56455000D02*
X169435000Y-59545000D01*
X169435000Y-56455170D02*
G75*
G02*
X174985000Y-58000462I2560000J-1544830D01*
G01*
X174985000Y-57999538D02*
G75*
G02*
X169435000Y-59544830I-2990000J-462D01*
G01*
X174495000Y-58000000D02*
G75*
G02*
X169495000Y-58000000I-2500000J0D01*
G01*
X169495000Y-58000000D02*
G75*
G02*
X174495000Y-58000000I2500000J0D01*
G01*
%TO.C,U2*%
X142200000Y-95250000D02*
X142200000Y-96750000D01*
X142200000Y-96750000D02*
X143150000Y-96750000D01*
X152600000Y-95250000D02*
X152600000Y-96750000D01*
X152600000Y-96750000D02*
X151650000Y-96750000D01*
X143150000Y-99312500D02*
X142820000Y-99552500D01*
X142820000Y-99072500D01*
X143150000Y-99312500D01*
G36*
X143150000Y-99312500D02*
G01*
X142820000Y-99552500D01*
X142820000Y-99072500D01*
X143150000Y-99312500D01*
G37*
%TO.C,D3*%
X161935000Y-56455000D02*
X161935000Y-59545000D01*
X161935000Y-56455170D02*
G75*
G02*
X167485000Y-58000462I2560000J-1544830D01*
G01*
X167485000Y-57999538D02*
G75*
G02*
X161935000Y-59544830I-2990000J-462D01*
G01*
X166995000Y-58000000D02*
G75*
G02*
X161995000Y-58000000I-2500000J0D01*
G01*
X161995000Y-58000000D02*
G75*
G02*
X166995000Y-58000000I2500000J0D01*
G01*
%TO.C,Q4*%
X90420000Y-90230000D02*
X90420000Y-94871000D01*
X90420000Y-90230000D02*
X100660000Y-90230000D01*
X90420000Y-91740000D02*
X100660000Y-91740000D01*
X90420000Y-94871000D02*
X100660000Y-94871000D01*
X93690000Y-90230000D02*
X93690000Y-91740000D01*
X97391000Y-90230000D02*
X97391000Y-91740000D01*
X100660000Y-90230000D02*
X100660000Y-94871000D01*
%TO.C,J3*%
X162687500Y-136160000D02*
X162687500Y-136900000D01*
X162687500Y-136900000D02*
X163187500Y-136900000D01*
X162927500Y-126739000D02*
X162927500Y-136660000D01*
X162927500Y-126739000D02*
X173047500Y-126739000D01*
X162927500Y-129699000D02*
X173047500Y-129699000D01*
X162927500Y-134600000D02*
X173047500Y-134600000D01*
X162927500Y-136100000D02*
X173047500Y-136100000D01*
X162927500Y-136660000D02*
X173047500Y-136660000D01*
X169260500Y-133023000D02*
X169213500Y-133069000D01*
X169453500Y-133239000D02*
X169418500Y-133274000D01*
X171557500Y-130725000D02*
X171522500Y-130761000D01*
X171762500Y-130931000D02*
X171715500Y-130977000D01*
X173047500Y-126739000D02*
X173047500Y-136660000D01*
X163952073Y-132683042D02*
G75*
G02*
X163952500Y-131316000I1535420J683041D01*
G01*
X164804458Y-130464573D02*
G75*
G02*
X166171500Y-130465000I683041J-1535420D01*
G01*
X165516305Y-133680253D02*
G75*
G02*
X164803500Y-133535000I-28806J1680254D01*
G01*
X166170818Y-133534756D02*
G75*
G02*
X165487500Y-133680000I-683318J1534756D01*
G01*
X167022927Y-131316958D02*
G75*
G02*
X167022500Y-132684000I-1535427J-683042D01*
G01*
X172167500Y-132000000D02*
G75*
G02*
X168807500Y-132000000I-1680000J0D01*
G01*
X168807500Y-132000000D02*
G75*
G02*
X172167500Y-132000000I1680000J0D01*
G01*
%TD*%
M02*
