%TF.GenerationSoftware,KiCad,Pcbnew,8.0.3*%
%TF.CreationDate,2024-07-01T15:14:42+02:00*%
%TF.ProjectId,wattwiser,77617474-7769-4736-9572-2e6b69636164,rev?*%
%TF.SameCoordinates,Original*%
%TF.FileFunction,Paste,Top*%
%TF.FilePolarity,Positive*%
%FSLAX46Y46*%
G04 Gerber Fmt 4.6, Leading zero omitted, Abs format (unit mm)*
G04 Created by KiCad (PCBNEW 8.0.3) date 2024-07-01 15:14:42*
%MOMM*%
%LPD*%
G01*
G04 APERTURE LIST*
G04 Aperture macros list*
%AMRoundRect*
0 Rectangle with rounded corners*
0 $1 Rounding radius*
0 $2 $3 $4 $5 $6 $7 $8 $9 X,Y pos of 4 corners*
0 Add a 4 corners polygon primitive as box body*
4,1,4,$2,$3,$4,$5,$6,$7,$8,$9,$2,$3,0*
0 Add four circle primitives for the rounded corners*
1,1,$1+$1,$2,$3*
1,1,$1+$1,$4,$5*
1,1,$1+$1,$6,$7*
1,1,$1+$1,$8,$9*
0 Add four rect primitives between the rounded corners*
20,1,$1+$1,$2,$3,$4,$5,0*
20,1,$1+$1,$4,$5,$6,$7,0*
20,1,$1+$1,$6,$7,$8,$9,0*
20,1,$1+$1,$8,$9,$2,$3,0*%
G04 Aperture macros list end*
%ADD10RoundRect,0.249999X-0.450001X-1.425001X0.450001X-1.425001X0.450001X1.425001X-0.450001X1.425001X0*%
%ADD11RoundRect,0.250000X0.650000X-0.412500X0.650000X0.412500X-0.650000X0.412500X-0.650000X-0.412500X0*%
%ADD12RoundRect,0.160000X-0.197500X-0.160000X0.197500X-0.160000X0.197500X0.160000X-0.197500X0.160000X0*%
%ADD13RoundRect,0.160000X0.197500X0.160000X-0.197500X0.160000X-0.197500X-0.160000X0.197500X-0.160000X0*%
%ADD14R,1.500000X0.900000*%
%ADD15R,0.900000X1.500000*%
%ADD16R,0.900000X0.900000*%
%ADD17RoundRect,0.155000X-0.212500X-0.155000X0.212500X-0.155000X0.212500X0.155000X-0.212500X0.155000X0*%
%ADD18RoundRect,0.150000X-0.587500X-0.150000X0.587500X-0.150000X0.587500X0.150000X-0.587500X0.150000X0*%
%ADD19RoundRect,0.110000X0.440000X1.590000X-0.440000X1.590000X-0.440000X-1.590000X0.440000X-1.590000X0*%
%ADD20RoundRect,0.250001X-0.462499X-0.624999X0.462499X-0.624999X0.462499X0.624999X-0.462499X0.624999X0*%
%ADD21RoundRect,0.155000X0.155000X-0.212500X0.155000X0.212500X-0.155000X0.212500X-0.155000X-0.212500X0*%
%ADD22RoundRect,0.150000X0.587500X0.150000X-0.587500X0.150000X-0.587500X-0.150000X0.587500X-0.150000X0*%
%ADD23RoundRect,0.150000X-0.662500X-0.150000X0.662500X-0.150000X0.662500X0.150000X-0.662500X0.150000X0*%
%ADD24RoundRect,0.250000X0.300000X-2.050000X0.300000X2.050000X-0.300000X2.050000X-0.300000X-2.050000X0*%
%ADD25RoundRect,0.250000X2.375000X-2.025000X2.375000X2.025000X-2.375000X2.025000X-2.375000X-2.025000X0*%
G04 APERTURE END LIST*
D10*
%TO.C,R16*%
X92450000Y-82000000D03*
X98550000Y-82000000D03*
%TD*%
%TO.C,R1*%
X89500000Y-73000000D03*
X95600000Y-73000000D03*
%TD*%
D11*
%TO.C,C2*%
X120500000Y-53062500D03*
X120500000Y-49937500D03*
%TD*%
D12*
%TO.C,R3*%
X147402500Y-53000000D03*
X148597500Y-53000000D03*
%TD*%
D13*
%TO.C,R15*%
X120805000Y-125000000D03*
X122000000Y-125000000D03*
%TD*%
D14*
%TO.C,U1*%
X125000000Y-49750000D03*
X125000000Y-51020000D03*
X125000000Y-52290000D03*
X125000000Y-53560000D03*
X125000000Y-54830000D03*
X125000000Y-56100000D03*
X125000000Y-57370000D03*
X125000000Y-58640000D03*
X125000000Y-59910000D03*
X125000000Y-61180000D03*
X125000000Y-62450000D03*
X125000000Y-63720000D03*
X125000000Y-64990000D03*
X125000000Y-66260000D03*
D15*
X128040000Y-67510000D03*
X129310000Y-67510000D03*
X130580000Y-67510000D03*
X131850000Y-67510000D03*
X133120000Y-67510000D03*
X134390000Y-67510000D03*
X135660000Y-67510000D03*
X136930000Y-67510000D03*
X138200000Y-67510000D03*
X139470000Y-67510000D03*
D14*
X142500000Y-66260000D03*
X142500000Y-64990000D03*
X142500000Y-63720000D03*
X142500000Y-62450000D03*
X142500000Y-61180000D03*
X142500000Y-59910000D03*
X142500000Y-58640000D03*
X142500000Y-57370000D03*
X142500000Y-56100000D03*
X142500000Y-54830000D03*
X142500000Y-53560000D03*
X142500000Y-52290000D03*
X142500000Y-51020000D03*
X142500000Y-49750000D03*
D16*
X130850000Y-56070000D03*
X130850000Y-57470000D03*
X130850000Y-58870000D03*
X132250000Y-56070000D03*
X132250000Y-57470000D03*
X132250000Y-58870000D03*
X133650000Y-56070000D03*
X133650000Y-57470000D03*
X133650000Y-58870000D03*
%TD*%
D13*
%TO.C,R8*%
X106195000Y-60000000D03*
X105000000Y-60000000D03*
%TD*%
D17*
%TO.C,C3*%
X104365000Y-49500000D03*
X105500000Y-49500000D03*
%TD*%
D18*
%TO.C,Q1*%
X148562500Y-57050000D03*
X148562500Y-58950000D03*
X150437500Y-58000000D03*
%TD*%
D19*
%TO.C,L1*%
X175500000Y-100500000D03*
X172500000Y-100500000D03*
%TD*%
D12*
%TO.C,R11*%
X154902500Y-67500000D03*
X156097500Y-67500000D03*
%TD*%
D20*
%TO.C,F1*%
X177025000Y-123500000D03*
X180000000Y-123500000D03*
%TD*%
D13*
%TO.C,R9*%
X106195000Y-56000000D03*
X105000000Y-56000000D03*
%TD*%
%TO.C,R14*%
X104097500Y-93500000D03*
X102902500Y-93500000D03*
%TD*%
%TO.C,R2*%
X110820000Y-75000000D03*
X109625000Y-75000000D03*
%TD*%
D12*
%TO.C,R12*%
X158902500Y-67500000D03*
X160097500Y-67500000D03*
%TD*%
D17*
%TO.C,C6*%
X118067500Y-125000000D03*
X116932500Y-125000000D03*
%TD*%
D13*
%TO.C,R13*%
X116695000Y-78000000D03*
X115500000Y-78000000D03*
%TD*%
D14*
%TO.C,D1*%
X101600000Y-57500000D03*
X101600000Y-58900000D03*
X98500000Y-57500000D03*
X98500000Y-58900000D03*
%TD*%
D12*
%TO.C,R6*%
X173305000Y-51000000D03*
X174500000Y-51000000D03*
%TD*%
%TO.C,R5*%
X165805000Y-51000000D03*
X167000000Y-51000000D03*
%TD*%
%TO.C,R10*%
X98902500Y-49500000D03*
X100097500Y-49500000D03*
%TD*%
D21*
%TO.C,C1*%
X123000000Y-51067500D03*
X123000000Y-49932500D03*
%TD*%
D12*
%TO.C,R4*%
X158305000Y-51000000D03*
X159500000Y-51000000D03*
%TD*%
D22*
%TO.C,Q3*%
X168902500Y-75950000D03*
X168902500Y-74050000D03*
X167027500Y-75000000D03*
%TD*%
%TO.C,Q2*%
X160402500Y-76000000D03*
X160402500Y-74100000D03*
X158527500Y-75050000D03*
%TD*%
D23*
%TO.C,U3*%
X99125000Y-75000000D03*
X99125000Y-76270000D03*
X105500000Y-76270000D03*
X105500000Y-75000000D03*
%TD*%
D12*
%TO.C,R7*%
X94602500Y-57375000D03*
X95797500Y-57375000D03*
%TD*%
D24*
%TO.C,U2*%
X144000000Y-99575000D03*
X145700000Y-99575000D03*
X147400000Y-99575000D03*
D25*
X144625000Y-92850000D03*
X150175000Y-92850000D03*
X144625000Y-88000000D03*
X150175000Y-88000000D03*
D24*
X149100000Y-99575000D03*
X150800000Y-99575000D03*
%TD*%
M02*
