M48
; DRILL file {KiCad 8.0.3} date 2024-07-01T15:14:48+0200
; FORMAT={-:-/ absolute / inch / decimal}
; #@! TF.CreationDate,2024-07-01T15:14:48+02:00
; #@! TF.GenerationSoftware,Kicad,Pcbnew,8.0.3
; #@! TF.FileFunction,Plated,1,4,PTH
FMAT,2
INCH
; #@! TA.AperFunction,Plated,PTH,ComponentDrill
T1C0.0079
; #@! TA.AperFunction,Plated,PTH,ViaDrill
T2C0.0118
; #@! TA.AperFunction,Plated,PTH,ComponentDrill
T3C0.0197
; #@! TA.AperFunction,Plated,PTH,ComponentDrill
T4C0.0315
; #@! TA.AperFunction,Plated,PTH,ComponentDrill
T5C0.0354
; #@! TA.AperFunction,Plated,PTH,ComponentDrill
T6C0.0394
; #@! TA.AperFunction,Plated,PTH,ComponentDrill
T7C0.0433
; #@! TA.AperFunction,Plated,PTH,ComponentDrill
T8C0.0512
; #@! TA.AperFunction,Plated,PTH,ComponentDrill
T9C0.0591
; #@! TA.AperFunction,Plated,PTH,ComponentDrill
T10C0.0630
; #@! TA.AperFunction,Plated,PTH,ComponentDrill
T11C0.1260
%
G90
G05
T1
X5.1516Y-2.235
X5.1516Y-2.2902
X5.1791Y-2.2075
X5.1791Y-2.2626
X5.1791Y-2.3177
X5.2057Y-2.235
X5.2057Y-2.2902
X5.2343Y-2.2075
X5.2343Y-2.2626
X5.2343Y-2.3177
X5.2618Y-2.235
X5.2618Y-2.2902
T2
X3.7992Y-2.3425
X4.1929Y-2.4409
X4.2126Y-1.9488
X4.2766Y-3.0118
X4.3898Y-3.0906
X4.4537Y-2.9528
X4.5866Y-1.9488
X4.5866Y-2.1457
X4.5866Y-2.2244
X4.5866Y-2.3425
X4.6063Y-2.9528
X4.8031Y-2.5394
X5.0787Y-2.5591
X5.5118Y-1.9291
X5.5118Y-1.9882
X5.5118Y-2.0472
X5.5118Y-2.1063
X5.5118Y-2.185
X5.5118Y-2.5394
X5.535Y-2.3425
X5.5512Y-4.5079
X5.6693Y-4.0748
X5.689Y-2.5394
X5.689Y-4.252
X5.7283Y-2.0866
X5.7677Y-4.0748
X5.7677Y-4.252
X5.7874Y-2.3228
X5.8465Y-4.252
X6.9882Y-2.0079
X6.9882Y-3.9567
T3
X3.4488Y-1.8504
X3.4488Y-5.3937
X3.4765Y-1.7836
X3.4765Y-1.9172
X3.4765Y-5.3269
X3.4765Y-5.4605
X3.5433Y-1.7559
X3.5433Y-1.9449
X3.5433Y-5.2992
X3.5433Y-5.4882
X3.6101Y-1.7836
X3.6101Y-1.9172
X3.6101Y-5.3269
X3.6101Y-5.4605
X3.6378Y-1.8504
X3.6378Y-5.3937
X6.9921Y-1.8504
X6.9921Y-5.3937
X7.0198Y-1.7836
X7.0198Y-1.9172
X7.0198Y-5.3269
X7.0198Y-5.4605
X7.0866Y-1.7559
X7.0866Y-1.9449
X7.0866Y-5.2992
X7.0866Y-5.4882
X7.1534Y-1.7836
X7.1534Y-1.9172
X7.1534Y-5.3269
X7.1534Y-5.4605
X7.1811Y-1.8504
X7.1811Y-5.3937
T4
X4.2913Y-3.248
X4.2913Y-3.548
X4.3913Y-3.248
X4.3913Y-3.548
X4.4913Y-3.248
X4.4913Y-3.548
T5
X6.1309Y-2.2835
X6.2309Y-2.2835
X6.4262Y-2.2835
X6.5262Y-2.2835
X6.7215Y-2.2835
X6.8215Y-2.2835
T6
X4.4882Y-2.0425
X4.4882Y-2.1425
X4.4882Y-2.2425
X4.4882Y-2.3425
X4.4882Y-2.4425
X4.4882Y-2.5425
X5.1378Y-3.4646
X5.1378Y-3.6614
X5.5512Y-4.3701
X5.6512Y-4.3701
X5.7512Y-4.3701
X5.8512Y-4.3701
X5.9512Y-4.3701
X6.0512Y-4.3701
X6.437Y-3.7546
X6.437Y-3.9515
T7
X3.6614Y-3.6811
X3.7614Y-3.6811
X3.8614Y-3.6811
T8
X4.0354Y-5.1969
X4.2323Y-5.1969
X4.6063Y-5.1969
X4.8031Y-5.1969
X6.5153Y-5.1969
X6.7121Y-5.1969
T9
X3.6158Y-4.2913
X3.6158Y-4.7146
X5.1316Y-4.3996
X5.1316Y-4.7146
T10
X6.2701Y-3.4843
X6.8701Y-3.4843
T11
X3.5433Y-1.8504
X3.5433Y-5.3937
X7.0866Y-1.8504
X7.0866Y-5.3937
M30
